<svg width="1280" height="600" viewBox="0 0 1280 600" fill="none" xmlns="http://www.w3.org/2000/svg">
<rect width="1280" height="600" fill="url(#paint0_linear_113_109)"/>
<path d="M615.013 163.369C614.163 162.513 613.006 162.032 611.8 162.032H600.458C596.429 162.032 594.405 166.897 597.245 169.755L609.698 182.284C611.454 184.05 611.454 186.903 609.698 188.67L597.245 201.199C594.405 204.056 596.429 208.921 600.458 208.921H611.8C613.006 208.921 614.163 208.44 615.013 207.585L633.813 188.67C635.568 186.903 635.568 184.05 633.813 182.284L615.013 163.369Z" fill="#9333EA"/>
<path d="M651.456 163.369C650.605 162.513 649.449 162.032 648.243 162.032H636.901C632.872 162.032 630.848 166.897 633.688 169.755L646.141 182.284C647.897 184.05 647.897 186.903 646.141 188.67L633.688 201.199C630.848 204.056 632.872 208.921 636.901 208.921H648.243C649.449 208.921 650.605 208.44 651.456 207.585L670.255 188.67C672.011 186.903 672.011 184.05 670.255 182.284L651.456 163.369Z" fill="#9333EA"/>
<path d="M619.521 163.369C618.671 162.513 617.515 162.032 616.309 162.032H604.966C600.938 162.032 598.914 166.897 601.754 169.755L614.207 182.284C615.962 184.05 615.962 186.903 614.207 188.67L601.754 201.199C598.914 204.056 600.938 208.921 604.966 208.921H616.309C617.515 208.921 618.671 208.44 619.521 207.585L638.321 188.67C640.077 186.903 640.077 184.05 638.321 182.284L619.521 163.369Z" fill="#B15FFE"/>
<path d="M655.964 163.369C655.114 162.513 653.958 162.032 652.752 162.032H641.409C637.381 162.032 635.357 166.897 638.197 169.755L650.649 182.284C652.405 184.05 652.405 186.903 650.649 188.67L638.197 201.199C635.357 204.056 637.381 208.921 641.409 208.921H652.752C653.958 208.921 655.114 208.44 655.964 207.585L674.764 188.67C676.52 186.903 676.52 184.05 674.764 182.284L655.964 163.369Z" fill="#B15FFE"/>
<path d="M553.646 228.548H561.724V253.619H553.646V228.548ZM553 220.655C553 219.417 553.449 218.368 554.346 217.508C555.28 216.614 556.393 216.167 557.685 216.167C558.978 216.167 560.073 216.614 560.97 217.508C561.903 218.368 562.37 219.417 562.37 220.655C562.37 221.893 561.903 222.959 560.97 223.853C560.073 224.713 558.978 225.143 557.685 225.143C556.393 225.143 555.28 224.713 554.346 223.853C553.449 222.959 553 221.893 553 220.655Z" fill="black"/>
<path d="M565.373 228.548H573.128V231.952H573.236C573.487 231.471 573.846 230.989 574.313 230.508C574.779 230.026 575.336 229.597 575.982 229.218C576.628 228.84 577.364 228.53 578.19 228.29C579.016 228.049 579.913 227.929 580.883 227.929C582.929 227.929 584.58 228.238 585.837 228.857C587.093 229.442 588.063 230.267 588.745 231.333C589.463 232.399 589.948 233.655 590.199 235.099C590.45 236.544 590.576 238.108 590.576 239.794V253.619H582.498V241.341C582.498 240.619 582.462 239.88 582.39 239.123C582.355 238.332 582.193 237.61 581.906 236.956C581.654 236.303 581.242 235.77 580.667 235.357C580.129 234.944 579.339 234.738 578.298 234.738C577.257 234.738 576.413 234.927 575.767 235.306C575.12 235.649 574.618 236.131 574.259 236.75C573.936 237.335 573.72 238.005 573.613 238.762C573.505 239.519 573.451 240.31 573.451 241.135V253.619H565.373V228.548Z" fill="black"/>
<path d="M618.914 249.286C617.621 250.868 615.988 252.089 614.013 252.948C612.039 253.808 609.992 254.238 607.874 254.238C605.864 254.238 603.961 253.929 602.166 253.31C600.407 252.69 598.863 251.813 597.535 250.679C596.242 249.509 595.219 248.116 594.465 246.5C593.711 244.884 593.334 243.078 593.334 241.083C593.334 239.089 593.711 237.283 594.465 235.667C595.219 234.05 596.242 232.675 597.535 231.54C598.863 230.37 600.407 229.476 602.166 228.857C603.961 228.238 605.864 227.929 607.874 227.929C609.741 227.929 611.428 228.238 612.936 228.857C614.48 229.476 615.772 230.37 616.813 231.54C617.89 232.675 618.716 234.05 619.291 235.667C619.865 237.283 620.152 239.089 620.152 241.083V243.508H601.412C601.735 244.987 602.435 246.173 603.512 247.067C604.589 247.927 605.917 248.357 607.497 248.357C608.825 248.357 609.938 248.082 610.836 247.532C611.769 246.947 612.577 246.208 613.259 245.313L618.914 249.286ZM612.074 238.246C612.11 236.939 611.662 235.821 610.728 234.893C609.795 233.964 608.592 233.5 607.12 233.5C606.223 233.5 605.433 233.638 604.751 233.913C604.069 234.188 603.476 234.549 602.974 234.996C602.507 235.409 602.13 235.907 601.843 236.492C601.591 237.042 601.448 237.627 601.412 238.246H612.074Z" fill="black"/>
<path d="M622.91 228.548H630.988V232.571H631.096C631.958 231.024 632.981 229.872 634.165 229.115C635.202 228.542 636.324 228.184 637.819 228.184C638.422 228.184 638.818 228.32 639.689 228.548V234.738C638.591 234.409 638.193 234.274 637.445 234.274C635.95 234.274 635.489 234.499 634.165 235.108C633.268 235.52 632.622 236.354 632.119 237.111C631.652 237.833 631.347 238.71 631.204 239.742C631.06 240.774 630.988 241.909 630.988 243.147V253.619H622.91V228.548Z" fill="black"/>
<path d="M660.511 234.738H653.403V243.095C653.403 243.783 653.439 244.419 653.51 245.004C653.582 245.554 653.744 246.036 653.995 246.448C654.246 246.861 654.623 247.188 655.126 247.429C655.665 247.635 656.365 247.738 657.226 247.738C657.657 247.738 658.213 247.704 658.896 247.635C659.614 247.532 660.152 247.325 660.511 247.016V253.464C659.614 253.774 658.68 253.98 657.711 254.083C656.742 254.187 655.79 254.238 654.857 254.238C653.492 254.238 652.236 254.101 651.087 253.825C649.938 253.55 648.933 253.12 648.071 252.536C647.21 251.917 646.528 251.126 646.025 250.163C645.558 249.2 645.325 248.03 645.325 246.655V234.738H640.155V228.548H645.325V221.119H653.403V228.548H660.511V234.738Z" fill="black"/>
<path d="M662.57 228.548H670.647V253.619H662.57V228.548ZM661.924 220.655C661.924 219.417 662.372 218.368 663.27 217.508C664.203 216.614 665.316 216.167 666.609 216.167C667.901 216.167 668.996 216.614 669.894 217.508C670.827 218.368 671.294 219.417 671.294 220.655C671.294 221.893 670.827 222.959 669.894 223.853C668.996 224.713 667.901 225.143 666.609 225.143C665.316 225.143 664.203 224.713 663.27 223.853C662.372 222.959 661.924 221.893 661.924 220.655Z" fill="black"/>
<path d="M677.097 234.738H671.766V228.548H677.097V224.111C677.097 222.735 677.223 221.446 677.474 220.242C677.725 219.004 678.21 217.921 678.928 216.992C679.646 216.063 680.669 215.341 681.998 214.825C683.362 214.275 685.139 214 687.329 214C688.155 214 688.962 214.034 689.752 214.103C690.542 214.172 691.314 214.292 692.068 214.464L691.691 221.016C691.224 220.844 690.793 220.724 690.398 220.655C690.004 220.552 689.555 220.5 689.052 220.5C687.76 220.5 686.79 220.775 686.144 221.325C685.498 221.841 685.175 222.925 685.175 224.575V228.548H691.152V234.738H685.175V253.619H677.097V234.738Z" fill="black"/>
<path d="M707.153 257.694C706.614 259.036 706.094 260.222 705.591 261.254C705.088 262.286 704.442 263.146 703.652 263.833C702.898 264.556 701.929 265.089 700.744 265.433C699.56 265.811 697.998 266 696.059 266C693.977 266 691.966 265.69 690.028 265.071L691.105 258.726C692.325 259.242 693.582 259.5 694.874 259.5C695.772 259.5 696.508 259.397 697.082 259.19C697.657 259.019 698.123 258.743 698.482 258.365C698.877 258.021 699.201 257.591 699.452 257.075C699.703 256.56 699.972 255.958 700.26 255.27L700.852 253.825L689.382 228.548H698.106L704.837 245.107H704.945L710.707 228.548H719L707.153 257.694Z" fill="black"/>
<path d="M111.88 116.808H139.4C139.485 114.547 139.251 112.371 138.696 110.28C138.184 108.189 137.331 106.333 136.136 104.712C134.984 103.091 133.469 101.789 131.592 100.808C129.757 99.8267 127.56 99.336 125 99.336C123.165 99.336 121.373 99.72 119.624 100.488C117.875 101.256 116.339 102.387 115.016 103.88C113.693 105.331 112.627 107.123 111.816 109.256C111.005 111.389 110.6 113.821 110.6 116.552C110.6 118.984 110.877 121.267 111.432 123.4C111.987 125.491 112.84 127.325 113.992 128.904C115.144 130.44 116.616 131.635 118.408 132.488C120.243 133.341 122.44 133.747 125 133.704C128.755 133.704 131.912 132.659 134.472 130.568C137.032 128.435 138.547 125.448 139.016 121.608H137.736C137.181 125.235 135.752 127.965 133.448 129.8C131.187 131.592 128.328 132.488 124.872 132.488C122.525 132.488 120.541 132.083 118.92 131.272C117.299 130.461 115.976 129.352 114.952 127.944C113.928 126.536 113.16 124.893 112.648 123.016C112.179 121.096 111.923 119.027 111.88 116.808ZM138.12 115.528H111.88C112.008 113.224 112.435 111.155 113.16 109.32C113.885 107.485 114.824 105.928 115.976 104.648C117.171 103.325 118.536 102.323 120.072 101.64C121.651 100.957 123.336 100.616 125.128 100.616C127.261 100.616 129.139 101.021 130.76 101.832C132.381 102.6 133.725 103.667 134.792 105.032C135.901 106.397 136.733 107.997 137.288 109.832C137.843 111.624 138.12 113.523 138.12 115.528Z" fill="black"/>
<path d="M165.32 100.104L153.992 115.016L142.92 100.104H141.256L153.224 115.976L140.104 133H141.64L153.992 116.936L166.408 133H168.008L154.824 115.976L166.856 100.104H165.32Z" fill="black"/>
<path d="M171.862 144.264V123.784H171.99C172.758 126.771 174.273 129.181 176.534 131.016C178.796 132.808 181.676 133.704 185.174 133.704C187.436 133.704 189.441 133.256 191.19 132.36C192.94 131.421 194.39 130.163 195.542 128.584C196.737 127.005 197.633 125.171 198.23 123.08C198.87 120.989 199.19 118.792 199.19 116.488C199.19 114.013 198.87 111.731 198.23 109.64C197.59 107.549 196.652 105.736 195.414 104.2C194.22 102.664 192.748 101.469 190.998 100.616C189.292 99.7627 187.35 99.336 185.174 99.336C183.51 99.336 181.953 99.592 180.502 100.104C179.094 100.573 177.836 101.256 176.726 102.152C175.617 103.048 174.657 104.115 173.846 105.352C173.036 106.547 172.417 107.869 171.99 109.32H171.862V100.104H170.582V144.264H171.862ZM185.174 132.488C181.164 132.488 177.942 131.123 175.51 128.392C173.078 125.619 171.862 121.651 171.862 116.488C171.862 114.355 172.161 112.328 172.758 110.408C173.356 108.488 174.209 106.803 175.318 105.352C176.47 103.901 177.878 102.749 179.542 101.896C181.206 101.043 183.084 100.616 185.174 100.616C187.308 100.616 189.164 101.043 190.742 101.896C192.364 102.749 193.686 103.923 194.71 105.416C195.777 106.867 196.566 108.552 197.078 110.472C197.633 112.349 197.91 114.355 197.91 116.488C197.91 118.408 197.654 120.328 197.142 122.248C196.673 124.125 195.926 125.832 194.902 127.368C193.878 128.861 192.556 130.099 190.934 131.08C189.356 132.019 187.436 132.488 185.174 132.488Z" fill="black"/>
<path d="M206.237 133V114.376C206.237 112.584 206.493 110.835 207.005 109.128C207.517 107.421 208.307 105.928 209.373 104.648C210.44 103.325 211.784 102.301 213.405 101.576C215.069 100.808 217.032 100.488 219.293 100.616V99.336C217.331 99.2933 215.603 99.5067 214.109 99.976C212.659 100.445 211.4 101.085 210.333 101.896C209.267 102.707 208.413 103.667 207.773 104.776C207.133 105.843 206.664 106.995 206.365 108.232H206.237V100.104H204.957V133H206.237Z" fill="black"/>
<path d="M220.88 116.808H248.4C248.485 114.547 248.251 112.371 247.696 110.28C247.184 108.189 246.331 106.333 245.136 104.712C243.984 103.091 242.469 101.789 240.592 100.808C238.757 99.8267 236.56 99.336 234 99.336C232.165 99.336 230.373 99.72 228.624 100.488C226.875 101.256 225.339 102.387 224.016 103.88C222.693 105.331 221.627 107.123 220.816 109.256C220.005 111.389 219.6 113.821 219.6 116.552C219.6 118.984 219.877 121.267 220.432 123.4C220.987 125.491 221.84 127.325 222.992 128.904C224.144 130.44 225.616 131.635 227.408 132.488C229.243 133.341 231.44 133.747 234 133.704C237.755 133.704 240.912 132.659 243.472 130.568C246.032 128.435 247.547 125.448 248.016 121.608H246.736C246.181 125.235 244.752 127.965 242.448 129.8C240.187 131.592 237.328 132.488 233.872 132.488C231.525 132.488 229.541 132.083 227.92 131.272C226.299 130.461 224.976 129.352 223.952 127.944C222.928 126.536 222.16 124.893 221.648 123.016C221.179 121.096 220.923 119.027 220.88 116.808ZM247.12 115.528H220.88C221.008 113.224 221.435 111.155 222.16 109.32C222.885 107.485 223.824 105.928 224.976 104.648C226.171 103.325 227.536 102.323 229.072 101.64C230.651 100.957 232.336 100.616 234.128 100.616C236.261 100.616 238.139 101.021 239.76 101.832C241.381 102.6 242.725 103.667 243.792 105.032C244.901 106.397 245.733 107.997 246.288 109.832C246.843 111.624 247.12 113.523 247.12 115.528Z" fill="black"/>
<path d="M274.96 109.832H276.24C276.24 106.163 275.173 103.496 273.04 101.832C270.907 100.168 268.005 99.336 264.336 99.336C262.288 99.336 260.56 99.592 259.152 100.104C257.744 100.616 256.592 101.277 255.696 102.088C254.8 102.899 254.16 103.795 253.776 104.776C253.392 105.757 253.2 106.696 253.2 107.592C253.2 109.384 253.52 110.813 254.16 111.88C254.8 112.947 255.803 113.779 257.168 114.376C258.107 114.803 259.173 115.187 260.368 115.528C261.563 115.869 262.949 116.232 264.528 116.616C265.936 116.957 267.323 117.299 268.688 117.64C270.053 117.981 271.248 118.451 272.272 119.048C273.339 119.603 274.192 120.328 274.832 121.224C275.515 122.12 275.856 123.293 275.856 124.744C275.856 126.152 275.515 127.347 274.832 128.328C274.192 129.309 273.36 130.12 272.336 130.76C271.312 131.357 270.16 131.805 268.88 132.104C267.643 132.36 266.427 132.488 265.232 132.488C261.349 132.488 258.363 131.635 256.272 129.928C254.224 128.179 253.2 125.448 253.2 121.736H251.92C251.92 125.875 253.029 128.904 255.248 130.824C257.509 132.744 260.837 133.704 265.232 133.704C266.64 133.704 268.048 133.533 269.456 133.192C270.907 132.893 272.187 132.381 273.296 131.656C274.448 130.931 275.365 129.992 276.048 128.84C276.773 127.688 277.136 126.28 277.136 124.616C277.136 123.037 276.816 121.757 276.176 120.776C275.579 119.795 274.768 118.984 273.744 118.344C272.763 117.704 271.632 117.213 270.352 116.872C269.115 116.488 267.856 116.125 266.576 115.784C264.784 115.315 263.205 114.909 261.84 114.568C260.517 114.227 259.28 113.821 258.128 113.352C257.019 112.883 256.123 112.221 255.44 111.368C254.8 110.472 254.48 109.213 254.48 107.592C254.48 107.293 254.565 106.76 254.736 105.992C254.907 105.224 255.312 104.456 255.952 103.688C256.592 102.877 257.573 102.173 258.896 101.576C260.219 100.936 262.032 100.616 264.336 100.616C265.915 100.616 267.344 100.787 268.624 101.128C269.947 101.469 271.077 102.024 272.016 102.792C272.955 103.517 273.68 104.456 274.192 105.608C274.704 106.76 274.96 108.168 274.96 109.832Z" fill="black"/>
<path d="M304.585 109.832H305.865C305.865 106.163 304.798 103.496 302.665 101.832C300.532 100.168 297.63 99.336 293.961 99.336C291.913 99.336 290.185 99.592 288.777 100.104C287.369 100.616 286.217 101.277 285.321 102.088C284.425 102.899 283.785 103.795 283.401 104.776C283.017 105.757 282.825 106.696 282.825 107.592C282.825 109.384 283.145 110.813 283.785 111.88C284.425 112.947 285.428 113.779 286.793 114.376C287.732 114.803 288.798 115.187 289.993 115.528C291.188 115.869 292.574 116.232 294.153 116.616C295.561 116.957 296.948 117.299 298.313 117.64C299.678 117.981 300.873 118.451 301.897 119.048C302.964 119.603 303.817 120.328 304.457 121.224C305.14 122.12 305.481 123.293 305.481 124.744C305.481 126.152 305.14 127.347 304.457 128.328C303.817 129.309 302.985 130.12 301.961 130.76C300.937 131.357 299.785 131.805 298.505 132.104C297.268 132.36 296.052 132.488 294.857 132.488C290.974 132.488 287.988 131.635 285.897 129.928C283.849 128.179 282.825 125.448 282.825 121.736H281.545C281.545 125.875 282.654 128.904 284.873 130.824C287.134 132.744 290.462 133.704 294.857 133.704C296.265 133.704 297.673 133.533 299.081 133.192C300.532 132.893 301.812 132.381 302.921 131.656C304.073 130.931 304.99 129.992 305.673 128.84C306.398 127.688 306.761 126.28 306.761 124.616C306.761 123.037 306.441 121.757 305.801 120.776C305.204 119.795 304.393 118.984 303.369 118.344C302.388 117.704 301.257 117.213 299.977 116.872C298.74 116.488 297.481 116.125 296.201 115.784C294.409 115.315 292.83 114.909 291.465 114.568C290.142 114.227 288.905 113.821 287.753 113.352C286.644 112.883 285.748 112.221 285.065 111.368C284.425 110.472 284.105 109.213 284.105 107.592C284.105 107.293 284.19 106.76 284.361 105.992C284.532 105.224 284.937 104.456 285.577 103.688C286.217 102.877 287.198 102.173 288.521 101.576C289.844 100.936 291.657 100.616 293.961 100.616C295.54 100.616 296.969 100.787 298.249 101.128C299.572 101.469 300.702 102.024 301.641 102.792C302.58 103.517 303.305 104.456 303.817 105.608C304.329 106.76 304.585 108.168 304.585 109.832Z" fill="black"/>
<path d="M335.636 214.614L338.972 206.008L338.827 205.475L305.818 214.136C309.337 209.066 308.128 205 308.128 205C308.128 205 297.587 211.704 289.615 211.529C281.643 211.353 279.074 209.234 266.85 213.118C254.626 216.998 251.172 228.91 247.629 231.469C244.085 234.028 232.967 242.363 232.967 242.363L232.991 242.51L243.014 239.332C243.014 239.332 240.265 241.912 234.424 249.751C234.424 249.751 234.324 249.658 234.151 249.5L234.162 249.555C234.162 249.555 238.856 256.699 243.463 255.379C243.926 255.244 244.448 255.024 245.017 254.735C246.872 255.764 249.293 256.775 251.967 257.054C251.967 257.054 250.157 254.959 248.648 252.575C249.055 252.314 249.473 252.042 249.898 251.767L249.701 251.904L253.518 253.301L253.096 249.727C253.11 249.72 253.12 249.71 253.134 249.703L256.885 251.075L256.419 247.825C256.896 247.577 257.369 247.343 257.842 247.127L261.752 232.398L277.92 221.414L276.635 224.634C273.357 232.662 267.202 234.558 267.202 234.558L264.633 235.528C262.723 237.777 261.918 238.331 261.261 245.881C262.802 245.496 264.273 245.403 265.607 245.761C272.515 247.615 274.908 255.905 273.046 258.199C272.58 258.774 271.471 259.754 270.073 260.906H267.268L267.23 263.17C267.133 263.245 267.037 263.317 266.943 263.393H264.09L264.056 265.601C263.804 265.794 263.551 265.98 263.31 266.162C260.629 266.217 257.234 263.888 257.234 263.888C257.234 266.007 259.006 269.268 259.006 269.268C259.006 269.268 259.123 269.213 259.32 269.117C259.148 269.244 259.051 269.313 259.051 269.313C259.051 269.313 266.225 274.077 270.743 272.312C274.76 270.744 285.16 262.578 294.136 258.712L321.302 251.584L324.884 242.342L304.181 247.773V239.473L328.472 233.099L332.054 223.857L304.187 231.17V222.866L335.636 214.614Z" fill="black"/>
<path d="M203.753 214.607C205.456 214.607 206.734 214.872 207.531 215.137L206.043 220.224C205.404 220.011 204.82 219.908 203.967 219.908C201.573 219.908 200.188 222.398 199.763 224.675L199.549 225.786L204.451 225.786L204.451 225.78H211.421V225.786L211.58 238.242C211.631 240.68 211.687 242.483 211.631 244.389H211.738C212.27 242.27 212.802 240.519 213.707 237.764L217.645 225.786H224.349L215.838 246.188C213.282 252.125 210.357 257.105 207.165 260.019C205.621 261.45 203.815 262.564 202.696 263.039L200.036 257.632C201.207 257.047 202.43 256.359 203.494 255.513C204.986 254.292 206.419 252.809 207.058 251.378C207.165 251.007 207.269 250.742 207.217 250.212L204.979 230.45L198.751 230.451L194.655 251.701H188.003L192.099 230.451L193.008 225.786L193.218 224.727C193.805 221.655 194.976 219.003 197.156 216.991C198.751 215.508 201.093 214.607 203.753 214.607ZM138.639 225.367C141.246 225.367 143.854 225.79 145.45 226.426L142.58 240.835C141.941 243.855 141.46 248.891 141.516 251.698L135.768 251.698L135.787 251.241C135.843 250.006 135.933 248.721 135.979 247.357H135.82C133.744 250.804 131.244 252.128 129.168 252.128C125.389 252.128 123.527 248.895 123.527 244.337C123.527 236.494 127.465 225.367 138.639 225.367ZM175.624 218.79L174.294 225.786H188.877L183.875 251.701H177.223L181.324 230.45L173.389 230.451L171.099 242.479C170.94 243.381 170.885 244.175 170.885 244.653C170.885 246.243 171.683 246.827 172.909 246.827C173.389 246.827 174.08 246.827 174.719 246.721L173.921 251.701C172.698 252.021 171.206 252.125 169.928 252.125C165.939 252.125 163.967 249.899 163.967 246.401C163.967 245.235 164.181 243.804 164.447 242.531L166.737 230.447H163.704L164.609 225.783H167.642L168.705 220.431L175.624 218.79ZM157.269 225.363C159.559 225.363 161.207 225.786 162.164 226.316L160.727 231.139C159.981 230.716 158.758 230.344 157.642 230.344C155.515 230.344 154.185 231.455 154.185 233.206C154.185 234.53 154.931 235.325 156.154 236.333C159.079 238.558 160.039 241.1 160.039 243.116C160.039 248.84 156.047 252.018 150.088 252.018C147.695 252.018 145.564 251.33 144.659 250.694L146.251 246.029C147.315 246.614 148.593 247.14 150.455 247.089C152.372 247.037 153.435 245.816 153.435 244.175C153.435 242.744 152.745 241.736 150.935 240.306C148.7 238.503 147.636 236.226 147.636 234C147.636 229.23 151.36 225.363 157.269 225.363ZM124.75 214.607C126.453 214.607 127.731 214.872 128.529 215.137L127.04 220.224C126.401 220.011 125.817 219.908 124.964 219.908C122.571 219.908 121.186 222.398 120.761 224.675L120.547 225.786H125.603L124.698 230.451H119.749L115.652 251.701H109L113.096 230.451L114.005 225.786L114.215 224.727C114.803 221.655 115.974 219.003 118.153 216.991C119.749 215.508 122.091 214.607 124.75 214.607ZM136.78 230.292C132.418 230.292 130.076 238.93 130.021 242.748C130.021 245.028 130.342 246.669 131.99 246.669C133.8 246.669 135.502 243.701 136.459 238.985L138.162 230.451C137.63 230.344 137.15 230.292 136.78 230.292ZM187.17 215.082C189.353 215.082 190.365 216.723 190.31 218.525C190.258 221.174 188.448 222.66 186.48 222.66C184.352 222.66 183.395 221.122 183.447 219.161C183.447 217.256 184.829 215.082 187.17 215.082Z" fill="black"/>
<path fill-rule="evenodd" clip-rule="evenodd" d="M149.521 325.101C148.902 325.101 148.316 325.238 147.794 325.423C148.918 326.181 149.545 327.181 149.858 328.326C149.882 328.487 149.922 328.592 149.938 328.745C149.954 328.899 149.987 329.011 149.987 329.148C150.067 331.108 149.481 331.35 149.055 332.511C148.753 333.212 148.624 333.976 148.678 334.738C148.733 335.5 148.97 336.238 149.368 336.889C149.439 337.062 149.528 337.227 149.633 337.381C148.79 331.753 153.464 330.906 154.332 329.157C154.396 327.544 153.127 326.601 152.139 325.883C151.355 325.387 150.447 325.124 149.521 325.125V325.101ZM156.564 326.367C156.484 326.875 156.54 326.746 156.516 327.012L156.468 327.592L156.307 328.124C156.258 328.305 156.199 328.483 156.131 328.657L155.89 329.165C155.825 329.245 155.777 329.342 155.713 329.431L155.577 329.632L155.255 330.076C155.119 330.213 155.014 330.366 154.854 330.479C154.693 330.592 154.589 330.745 154.436 330.858C153.97 331.213 153.44 331.479 152.95 331.825C152.79 331.938 152.629 332.027 152.508 332.148C152.388 332.269 152.219 332.374 152.091 332.503C151.962 332.632 151.826 332.769 151.689 332.922C151.553 333.075 151.448 333.212 151.368 333.365L151.047 333.833L150.806 334.341L150.629 334.849L150.468 335.413C150.444 335.494 150.444 335.615 150.42 335.704C150.396 335.792 150.396 335.881 150.372 335.97L150.348 336.534C150.345 336.669 150.353 336.804 150.372 336.937C150.372 337.115 150.396 337.292 150.436 337.502C150.477 337.711 150.501 337.857 150.549 338.034L150.725 338.566C150.774 338.679 150.838 338.792 150.886 338.889L145.794 336.905L143.224 336.236L141.827 335.913C140.493 335.648 139.148 335.449 137.795 335.317C136.44 335.167 135.078 335.091 133.715 335.091L130.823 335.204C129.464 335.302 128.111 335.466 126.768 335.696L125.772 335.873L123.78 336.316L122.784 336.583L121.82 337.002L121.097 337.324L120.374 337.679C120.31 337.703 120.262 337.727 120.214 337.744L119.523 338.098C119.363 338.163 119.202 338.26 119.081 338.324C119.017 338.373 118.921 338.405 118.881 338.437L118.302 338.76C118.102 338.872 117.925 338.985 117.772 339.082L117.331 339.405L116.849 339.759L116.471 340.082C116.23 340.259 116.118 340.372 116.005 340.461L115.523 340.929L115.082 341.348L114.704 341.751C114.656 341.799 114.592 341.832 114.544 341.888C114.431 342.025 114.303 342.154 114.166 342.291L113.572 342.936L112.367 344.089C111.975 344.44 111.562 344.766 111.13 345.065L109.797 345.911C109.344 346.161 108.878 346.385 108.4 346.581C107.934 346.782 107.436 346.96 106.954 347.113C106.022 347.314 105.074 347.693 104.247 347.758C104.071 347.758 103.87 347.806 103.685 347.822L103.123 347.959L102.593 348.161C102.416 348.226 102.239 348.322 102.063 348.403C101.886 348.484 101.741 348.604 101.581 348.725C101.424 348.84 101.276 348.966 101.139 349.104C100.978 349.217 100.818 349.37 100.697 349.508L100.32 349.951C100.207 350.128 100.079 350.274 99.9986 350.459C99.9183 350.644 99.7737 350.781 99.6773 350.967L99.4364 351.547L99.2356 352.128L99.1231 352.66C99.0589 352.926 99.0589 353.192 99.0428 353.329C99.0268 353.466 98.9946 353.62 98.9946 353.773C98.9946 353.853 98.9946 353.974 99.0187 354.063C99.0428 354.224 99.0669 354.353 99.099 354.482L99.2597 354.886C99.3239 355.047 99.4203 355.176 99.5006 355.305L99.7897 355.708L100.167 356.063C100.304 356.2 100.432 356.305 100.585 356.418C101.115 356.885 101.251 357.038 101.934 357.385C102.047 357.45 102.159 357.498 102.288 357.562C102.4 357.885 102.448 358.046 102.488 358.232C102.528 358.417 102.601 358.611 102.665 358.764L102.842 359.167L103.163 359.764L103.484 360.231L103.862 360.651C103.998 360.788 104.127 360.892 104.279 361.03L104.721 361.352C104.876 361.462 105.04 361.559 105.211 361.642C105.372 361.723 105.532 361.82 105.717 361.884C105.854 361.949 106.006 361.997 106.159 362.045C106.311 362.094 106.448 362.126 106.536 362.158C106.472 363.368 106.456 364.577 106.617 364.9C106.817 365.343 107.789 363.989 108.769 362.433C108.632 364.045 108.544 365.771 108.769 366.303C108.994 366.835 110.343 365.126 111.5 363.207C127.209 359.562 141.537 370.463 143.063 385.847C142.774 383.445 139.827 382.114 138.485 382.445C137.819 384.09 136.694 386.202 134.871 387.525C135.029 386.038 134.953 384.536 134.646 383.074C134.165 385.122 133.201 387.025 131.9 388.678C130.885 388.747 129.869 388.564 128.941 388.145C128.014 387.726 127.204 387.083 126.583 386.275C126.503 386.21 126.47 386.073 126.406 385.985L126.173 385.436C126.109 385.275 126.061 385.114 126.037 384.969C126.013 384.823 126.013 384.646 126.013 384.485V384.162C126.037 384.001 126.077 383.84 126.125 383.695L126.286 383.227C126.366 383.066 126.446 382.904 126.551 382.759C126.928 381.695 126.928 380.824 126.229 380.316C126.093 380.236 125.964 380.155 125.812 380.09C125.731 380.066 125.611 380.026 125.523 380.01L125.346 379.945L124.88 379.832C124.729 379.789 124.572 379.767 124.414 379.768C124.252 379.741 124.089 379.724 123.924 379.72C123.812 379.72 123.7 379.744 123.603 379.744C123.426 379.744 123.282 379.768 123.121 379.808L122.655 379.889L122.19 380.05L121.748 380.252L121.33 380.477C116.166 383.864 119.242 391.766 122.776 394.072C121.443 394.314 120.093 394.604 119.724 394.894C120.631 395.515 121.627 396.007 122.671 396.507L126.262 397.571C128.094 397.966 129.972 398.107 131.843 397.99C141.658 397.297 149.705 389.806 151.167 379.929L151.304 380.51L151.505 381.751C151.553 381.977 151.569 382.171 151.585 382.348L151.633 383.017L151.681 383.743V384.098C151.681 384.211 151.705 384.34 151.705 384.453C151.705 384.565 151.681 384.719 151.681 384.856V385.178C151.681 385.339 151.657 385.468 151.657 385.622C151.657 385.702 151.657 385.799 151.633 385.912L151.609 386.396C151.585 386.46 151.585 386.533 151.585 386.597L151.521 387.105C151.521 387.17 151.521 387.242 151.497 387.307L151.416 387.952V387.992L151.28 388.613L151.143 389.282L150.79 390.653L150.565 391.363L150.083 392.653L149.818 393.298L149.497 393.918C149.473 393.983 149.448 394.031 149.432 394.08C147.956 397.049 145.808 399.631 143.16 401.619C142.983 401.732 142.806 401.861 142.63 401.998C142.582 402.046 142.517 402.062 142.469 402.11L141.987 402.433L142.051 402.57H142.076L143.007 402.433H143.031L144.758 402.11C144.919 402.086 145.079 402.046 145.24 401.998L145.561 401.933L146.027 401.852L146.429 401.74C148.624 401.202 150.773 400.487 152.854 399.603C149.294 404.473 144.56 408.354 139.096 410.883C141.654 410.713 144.187 410.272 146.654 409.569C155.585 406.924 163.094 400.893 167.592 392.774C166.684 397.91 164.644 402.804 161.632 407.077C163.785 405.65 165.752 404.013 167.551 402.143C172.515 396.934 175.776 390.33 176.868 383.235C177.623 386.75 177.832 390.379 177.511 393.959C193.509 371.56 178.844 348.338 172.692 342.219C172.611 342.38 172.579 342.638 172.563 342.912L172.338 344.404L171.961 345.871L171.431 347.298L170.764 348.653L169.961 349.919L169.053 351.128C168.732 351.531 168.363 351.886 168.009 352.241L167.367 352.805L166.861 353.249C166.467 353.564 166.053 353.855 165.624 354.12L164.315 354.877L162.917 355.498C162.446 355.677 161.966 355.834 161.48 355.966L159.994 356.289C159.488 356.369 158.974 356.426 158.484 356.466L157.424 356.514C156.918 356.514 156.404 356.466 155.914 356.434C155.406 356.396 154.902 356.323 154.404 356.216C153.898 356.135 153.408 355.99 152.918 355.837H152.894L154.356 355.66L155.842 355.337L157.287 354.869C157.769 354.692 158.251 354.466 158.685 354.249C159.141 354.026 159.586 353.781 160.018 353.515L161.255 352.709C161.653 352.399 162.031 352.065 162.387 351.709C162.758 351.368 163.106 351.005 163.431 350.62L164.363 349.411C164.411 349.346 164.443 349.25 164.5 349.185L165.142 348.121L165.809 346.766L166.339 345.339C166.499 344.871 166.604 344.371 166.716 343.888L166.941 342.396L167.021 340.88L166.981 339.816L166.805 338.324L166.483 336.833L166.001 335.405C165.825 334.938 165.6 334.47 165.383 334.035L164.628 332.72L163.825 331.495L162.805 330.366L162.227 329.802L159.151 327.625C158.99 327.544 158.861 327.463 158.709 327.399C157.986 326.931 157.287 326.689 156.605 326.463L156.564 326.367Z" fill="#EA2845"/>
<path d="M200.914 383.066C201.428 382.82 201.971 382.639 202.529 382.525C203.774 382.324 204.48 382.155 204.681 382.018C205.018 381.816 205.243 381.534 205.356 381.276C205.492 380.792 205.557 379.824 205.557 378.268V375.325L205.589 372.922L205.484 369.334V367.214C205.484 365.795 205.38 364.61 205.147 363.731C205.083 363.392 204.777 363.053 204.304 362.715C203.661 362.231 202.697 361.804 201.107 361.36L201.075 359.748L201.846 359.586C202.087 359.554 202.994 359.312 204.577 358.909L206.97 357.966L207.532 357.659C207.82 357.414 208.123 357.187 208.44 356.982C209.347 356.264 210.162 355.435 210.865 354.515L212.648 354.378L212.584 358.199C212.552 358.57 212.552 358.877 212.552 359.111L212.584 360.667C214.471 359.054 216.158 357.925 217.708 357.28C219.506 356.483 221.445 356.058 223.411 356.03C225.39 355.99 227.336 356.543 229 357.619C230.575 358.667 231.651 359.877 232.213 361.247C232.775 362.618 232.952 365.44 232.952 369.601L232.815 380.695C232.808 381.138 232.901 381.576 233.088 381.977C233.685 382.251 234.323 382.423 234.976 382.485L236.63 382.792C236.841 383.111 236.948 383.489 236.936 383.872L236.903 384.985L230.269 384.501L228.318 384.565H226.768L222.286 384.904H221.138C221.105 384.598 221.105 384.396 221.105 384.227L221.17 382.904C221.475 382.84 222.278 382.743 223.531 382.566C223.868 382.534 224.238 382.429 224.68 382.324C225.121 382.163 225.386 381.953 225.451 381.784C225.611 381.381 225.724 380.671 225.724 379.582L225.659 375.188L225.691 371.261C225.691 366.456 225.418 363.481 224.888 362.336C224.085 360.61 222.736 359.756 221.017 359.756C219.657 359.788 218.321 360.124 217.106 360.739C215.561 361.498 214.142 362.491 212.897 363.682L212.833 364.247L212.897 366.375L212.865 368.633L213.002 374.075L212.937 374.922C212.937 378.607 213.074 380.703 213.379 381.179C213.684 381.655 214.793 382.163 216.752 382.735L216.857 383.582C216.857 383.856 216.752 384.259 216.616 384.831L214.833 384.864C214.088 384.841 213.345 384.774 212.608 384.662L208.898 384.63L201.083 384.872C200.989 384.647 200.943 384.406 200.946 384.162L200.979 383.082L200.914 383.066ZM240.702 366.891C241.305 364.956 241.811 363.682 242.285 363.069C243.529 361.215 244.879 359.844 246.3 358.715C247.722 357.587 249.031 356.99 250.171 356.651C251.349 356.27 252.573 356.053 253.81 356.006C255.532 355.959 257.254 356.13 258.934 356.514C260.111 356.764 261.231 357.234 262.235 357.901C263.343 358.67 264.36 359.566 265.263 360.57C266.056 361.528 266.683 362.613 267.118 363.779C267.656 365.193 267.941 366.692 267.961 368.206L264.186 368.141C261.906 368.089 259.627 367.986 257.352 367.835L254.653 367.698L251.015 367.73H248.083L248.019 368.536C248.019 369.746 248.18 371.003 248.461 372.358C248.742 373.713 249.2 374.825 249.778 375.841C250.35 376.823 251.092 377.694 251.971 378.413C252.774 379.155 253.754 379.663 254.669 380.002L256.621 380.647L260.123 380.486C261.088 380.288 262.034 380.004 262.95 379.639C264.006 379.132 265.009 378.522 265.945 377.817L268.001 379.429C266.018 381.59 263.921 383.219 261.801 384.267C259.681 385.315 257.287 385.718 254.573 385.718C252.79 385.718 251.336 385.581 250.196 385.235C248.741 384.853 247.361 384.226 246.116 383.38C244.896 382.509 243.813 381.46 242.903 380.268C241.939 379.058 241.353 377.728 240.919 376.414C240.381 374.688 240.076 373.301 240.076 372.285C240.058 370.492 240.22 368.701 240.558 366.94L240.702 366.891ZM260.38 365.44C260.347 364.15 260.106 362.973 259.641 361.787C259.175 360.602 258.436 359.756 257.416 359.127C256.535 358.51 255.493 358.168 254.42 358.143C252.814 358.143 251.553 358.82 250.308 360.135C249.063 361.449 248.421 363.36 248.252 365.577L255.962 365.609L258.05 365.505L259.464 365.4L260.371 365.432L260.38 365.44ZM273.23 375.293C273.718 375.182 274.215 375.114 274.716 375.091L275.423 375.124L275.728 375.462L278.153 379.389C278.924 380.3 279.703 381.05 280.563 381.622C281.069 381.961 281.88 382.364 282.988 382.735C283.756 383.009 284.566 383.145 285.382 383.138C286.723 383.173 288.025 382.688 289.02 381.784C290.032 380.84 290.626 379.849 290.626 378.776C290.626 378.067 290.425 377.454 290.064 376.954C289.703 376.454 288.915 375.938 287.775 375.341C287.213 375.099 285.791 374.696 283.494 374.132L279.575 373.019C278.538 372.631 277.58 372.057 276.748 371.326C275.957 370.642 275.315 369.802 274.86 368.859C274.298 367.569 274.057 366.456 274.057 365.634C274.057 363.908 274.33 362.521 274.796 361.409C275.308 360.309 276.028 359.321 276.916 358.498C277.559 357.853 278.523 357.288 279.848 356.772C281.202 356.253 282.639 355.991 284.088 355.998C285.985 355.973 287.881 356.121 289.751 356.442C291.177 356.684 292.562 357.129 293.863 357.764C294.023 358.272 294.2 359.49 294.465 361.352L294.835 364.698C294.835 364.859 294.803 365.037 294.73 365.206C294.249 365.362 293.749 365.455 293.244 365.48C293.044 365.48 292.706 365.448 292.265 365.416C291.976 364.955 291.709 364.481 291.461 363.997C290.385 361.965 289.269 360.546 288.128 359.739C286.988 358.933 285.703 358.49 284.113 358.49C282.522 358.49 281.245 358.973 280.201 359.844C279.819 360.18 279.517 360.598 279.318 361.067C279.12 361.536 279.029 362.044 279.053 362.553C279.053 363.295 279.454 364.045 280.257 364.811C281.061 365.577 282.41 366.198 284.37 366.601C287.341 367.246 289.526 367.923 290.907 368.56C292.931 369.504 294.377 370.657 295.188 371.947C295.999 373.237 296.433 374.721 296.433 376.414C296.433 379.05 295.421 381.252 293.437 383.009C291.453 384.767 288.618 385.614 284.811 385.614C283.517 385.552 282.226 385.439 280.94 385.275C280 385.17 278.884 384.936 277.607 384.598C276.763 384.306 275.933 383.978 275.117 383.614C274.907 383.492 274.723 383.327 274.579 383.13C274.515 382.929 274.338 381.977 274.137 380.292L273.575 375.317L273.23 375.293ZM300.987 359.054C303.637 357.941 305.565 356.821 306.745 355.829C307.926 354.837 309.203 352.95 310.552 350.507H312.48C312.682 351.107 312.785 351.736 312.785 352.37L312.753 355.144L312.648 357.135L312.681 357.909L313.452 357.941L316.616 357.804L319.146 357.74C319.28 358.27 319.358 358.814 319.379 359.361C319.379 359.901 319.274 360.514 319.106 361.183C318.547 361.266 317.984 361.312 317.419 361.32C317.259 361.32 316.881 361.32 316.343 361.255H314.592L313.982 361.223L312.375 361.288L312.311 374.188L312.448 378.889C312.591 379.536 312.867 380.146 313.259 380.679C313.797 380.929 314.384 381.055 314.978 381.05C315.58 381.05 316.022 380.985 316.327 380.889C316.632 380.792 317.13 380.445 317.813 379.905C317.949 379.768 318.182 379.631 318.455 379.421C318.959 379.787 319.413 380.218 319.805 380.703L319.941 381.106C319.112 382.381 317.947 383.4 316.576 384.049C315.162 384.759 313.644 385.098 312.03 385.098C309.91 385.098 308.223 384.42 306.906 383.106C305.589 381.792 304.954 379.687 304.954 376.881L305.091 370.931V361.247L304.047 361.215L301.589 361.247L301.147 361.142C301.023 360.98 300.952 360.783 300.947 360.578L301.011 358.965L300.987 359.054Z" fill="#EA2845"/>
<path d="M107.472 486.051H111.878V489.237H107.472V494.218H104.115V489.237H99.6958V486.051H104.115V481.278H107.472V486.051ZM119.959 489.274C119.959 487.98 120.212 486.816 120.716 485.783C121.229 484.749 121.937 483.952 122.84 483.39C123.752 482.829 124.789 482.548 125.953 482.548C127.752 482.548 129.204 483.17 130.311 484.416C131.426 485.661 131.983 487.317 131.983 489.384V489.542C131.983 490.828 131.735 491.984 131.239 493.009C130.75 494.027 130.047 494.82 129.127 495.39C128.215 495.959 127.166 496.244 125.978 496.244C124.187 496.244 122.735 495.622 121.62 494.376C120.513 493.131 119.959 491.483 119.959 489.433V489.274ZM122.23 489.542C122.23 491.007 122.568 492.183 123.243 493.07C123.927 493.957 124.838 494.401 125.978 494.401C127.125 494.401 128.036 493.953 128.712 493.058C129.387 492.155 129.725 490.893 129.725 489.274C129.725 487.825 129.379 486.653 128.688 485.758C128.004 484.855 127.092 484.403 125.953 484.403C124.838 484.403 123.939 484.847 123.255 485.734C122.572 486.621 122.23 487.89 122.23 489.542ZM137.879 479.594V482.792H140.345V484.538H137.879V492.729C137.879 493.257 137.989 493.656 138.209 493.925C138.429 494.185 138.803 494.315 139.332 494.315C139.592 494.315 139.951 494.267 140.406 494.169V496C139.812 496.163 139.234 496.244 138.673 496.244C137.664 496.244 136.903 495.939 136.39 495.329C135.877 494.718 135.621 493.852 135.621 492.729V484.538H133.216V482.792H135.621V479.594H137.879ZM145.252 484.391C146.253 483.162 147.556 482.548 149.159 482.548C151.95 482.548 153.358 484.123 153.382 487.272V496H151.124V487.26C151.116 486.308 150.896 485.604 150.465 485.148C150.042 484.692 149.378 484.464 148.475 484.464C147.743 484.464 147.1 484.66 146.546 485.05C145.993 485.441 145.562 485.954 145.252 486.588V496H142.994V477.25H145.252V484.391ZM162.245 496.244C160.454 496.244 158.998 495.658 157.875 494.486C156.751 493.306 156.19 491.732 156.19 489.762V489.347C156.19 488.037 156.438 486.869 156.935 485.844C157.439 484.81 158.139 484.005 159.034 483.427C159.938 482.841 160.914 482.548 161.964 482.548C163.681 482.548 165.016 483.113 165.968 484.245C166.92 485.376 167.396 486.995 167.396 489.103V490.043H158.448C158.481 491.345 158.859 492.399 159.583 493.205C160.316 494.002 161.244 494.401 162.367 494.401C163.164 494.401 163.84 494.238 164.393 493.913C164.946 493.587 165.431 493.156 165.846 492.619L167.225 493.693C166.118 495.394 164.458 496.244 162.245 496.244ZM161.964 484.403C161.052 484.403 160.287 484.737 159.669 485.404C159.05 486.063 158.668 486.991 158.521 488.188H165.138V488.017C165.073 486.869 164.763 485.982 164.21 485.355C163.657 484.721 162.908 484.403 161.964 484.403ZM176.405 484.818C176.063 484.761 175.693 484.733 175.294 484.733C173.813 484.733 172.808 485.364 172.279 486.625V496H170.021V482.792H172.218L172.254 484.318C172.995 483.138 174.045 482.548 175.404 482.548C175.843 482.548 176.177 482.605 176.405 482.719V484.818ZM185.804 496V484.538H183.717V482.792H185.804V481.437C185.804 480.021 186.183 478.926 186.939 478.153C187.696 477.38 188.766 476.994 190.15 476.994C190.671 476.994 191.188 477.063 191.7 477.201L191.578 479.032C191.196 478.959 190.789 478.922 190.357 478.922C189.625 478.922 189.059 479.138 188.661 479.569C188.262 479.993 188.062 480.603 188.062 481.4V482.792H190.882V484.538H188.062V496H185.804ZM199.769 484.818C199.427 484.761 199.057 484.733 198.658 484.733C197.177 484.733 196.172 485.364 195.643 486.625V496H193.385V482.792H195.582L195.619 484.318C196.359 483.138 197.409 482.548 198.768 482.548C199.208 482.548 199.541 482.605 199.769 482.719V484.818ZM209.522 496C209.392 495.74 209.286 495.276 209.205 494.608C208.155 495.699 206.902 496.244 205.445 496.244C204.143 496.244 203.073 495.878 202.235 495.146C201.405 494.405 200.99 493.469 200.99 492.338C200.99 490.963 201.511 489.896 202.552 489.14C203.602 488.375 205.075 487.992 206.971 487.992H209.168V486.955C209.168 486.165 208.932 485.539 208.46 485.075C207.988 484.603 207.293 484.367 206.373 484.367C205.567 484.367 204.892 484.57 204.347 484.977C203.801 485.384 203.529 485.876 203.529 486.454H201.258C201.258 485.795 201.49 485.16 201.954 484.55C202.426 483.931 203.061 483.443 203.858 483.085C204.664 482.727 205.547 482.548 206.507 482.548C208.029 482.548 209.221 482.93 210.084 483.695C210.947 484.452 211.394 485.498 211.427 486.833V492.912C211.427 494.124 211.581 495.089 211.891 495.805V496H209.522ZM205.775 494.279C206.483 494.279 207.154 494.096 207.789 493.729C208.424 493.363 208.884 492.887 209.168 492.301V489.591H207.398C204.632 489.591 203.248 490.401 203.248 492.021C203.248 492.729 203.484 493.282 203.956 493.681C204.428 494.079 205.034 494.279 205.775 494.279ZM217.091 482.792L217.152 484.257C218.12 483.118 219.426 482.548 221.07 482.548C222.918 482.548 224.175 483.256 224.842 484.672C225.282 484.037 225.851 483.524 226.551 483.134C227.259 482.743 228.093 482.548 229.054 482.548C231.951 482.548 233.424 484.082 233.473 487.15V496H231.214V487.284C231.214 486.34 230.999 485.636 230.567 485.172C230.136 484.7 229.412 484.464 228.395 484.464C227.556 484.464 226.861 484.717 226.307 485.221C225.754 485.718 225.432 486.389 225.343 487.235V496H223.072V487.345C223.072 485.425 222.132 484.464 220.252 484.464C218.771 484.464 217.758 485.095 217.213 486.356V496H214.955V482.792H217.091ZM242.372 496.244C240.581 496.244 239.125 495.658 238.001 494.486C236.878 493.306 236.317 491.732 236.317 489.762V489.347C236.317 488.037 236.565 486.869 237.062 485.844C237.566 484.81 238.266 484.005 239.161 483.427C240.064 482.841 241.041 482.548 242.091 482.548C243.808 482.548 245.143 483.113 246.095 484.245C247.047 485.376 247.523 486.995 247.523 489.103V490.043H238.575C238.608 491.345 238.986 492.399 239.71 493.205C240.443 494.002 241.371 494.401 242.494 494.401C243.291 494.401 243.967 494.238 244.52 493.913C245.073 493.587 245.558 493.156 245.973 492.619L247.352 493.693C246.245 495.394 244.585 496.244 242.372 496.244ZM242.091 484.403C241.179 484.403 240.414 484.737 239.796 485.404C239.177 486.063 238.795 486.991 238.648 488.188H245.265V488.017C245.2 486.869 244.89 485.982 244.337 485.355C243.784 484.721 243.035 484.403 242.091 484.403ZM261.842 492.887L264.381 482.792H266.639L262.794 496H260.963L257.752 485.99L254.627 496H252.796L248.963 482.792H251.209L253.81 492.68L256.886 482.792H258.705L261.842 492.887ZM268.348 489.274C268.348 487.98 268.6 486.816 269.105 485.783C269.618 484.749 270.326 483.952 271.229 483.39C272.14 482.829 273.178 482.548 274.342 482.548C276.14 482.548 277.593 483.17 278.7 484.416C279.815 485.661 280.372 487.317 280.372 489.384V489.542C280.372 490.828 280.124 491.984 279.627 493.009C279.139 494.027 278.435 494.82 277.516 495.39C276.604 495.959 275.554 496.244 274.366 496.244C272.576 496.244 271.123 495.622 270.008 494.376C268.902 493.131 268.348 491.483 268.348 489.433V489.274ZM270.619 489.542C270.619 491.007 270.956 492.183 271.632 493.07C272.315 493.957 273.227 494.401 274.366 494.401C275.514 494.401 276.425 493.953 277.101 493.058C277.776 492.155 278.114 490.893 278.114 489.274C278.114 487.825 277.768 486.653 277.076 485.758C276.393 484.855 275.481 484.403 274.342 484.403C273.227 484.403 272.328 484.847 271.644 485.734C270.96 486.621 270.619 487.89 270.619 489.542ZM289.588 484.818C289.247 484.761 288.876 484.733 288.478 484.733C286.996 484.733 285.991 485.364 285.462 486.625V496H283.204V482.792H285.401L285.438 484.318C286.179 483.138 287.228 482.548 288.587 482.548C289.027 482.548 289.361 482.605 289.588 482.719V484.818ZM295.362 489.884L293.946 491.361V496H291.688V477.25H293.946V488.59L295.155 487.138L299.269 482.792H302.015L296.876 488.31L302.613 496H299.964L295.362 489.884ZM312.037 492.497C312.037 491.886 311.805 491.414 311.341 491.081C310.886 490.739 310.084 490.446 308.937 490.202C307.797 489.958 306.89 489.665 306.214 489.323C305.547 488.981 305.051 488.574 304.725 488.102C304.408 487.63 304.249 487.069 304.249 486.417C304.249 485.335 304.705 484.42 305.616 483.671C306.536 482.922 307.708 482.548 309.132 482.548C310.629 482.548 311.842 482.934 312.77 483.708C313.705 484.481 314.173 485.469 314.173 486.674H311.903C311.903 486.055 311.638 485.522 311.109 485.075C310.589 484.627 309.929 484.403 309.132 484.403C308.31 484.403 307.667 484.582 307.203 484.94C306.739 485.299 306.507 485.766 306.507 486.344C306.507 486.889 306.723 487.3 307.154 487.577C307.586 487.854 308.363 488.118 309.486 488.371C310.617 488.623 311.533 488.924 312.232 489.274C312.932 489.624 313.449 490.047 313.783 490.543C314.125 491.032 314.295 491.63 314.295 492.338C314.295 493.518 313.823 494.466 312.879 495.182C311.935 495.89 310.711 496.244 309.205 496.244C308.147 496.244 307.211 496.057 306.397 495.683C305.584 495.308 304.945 494.787 304.481 494.12C304.025 493.445 303.797 492.716 303.797 491.935H306.056C306.096 492.692 306.397 493.294 306.959 493.742C307.529 494.181 308.277 494.401 309.205 494.401C310.06 494.401 310.743 494.23 311.256 493.888C311.777 493.538 312.037 493.074 312.037 492.497Z" fill="#544D59"/>
<path d="M1014.28 490.595C1011.51 490.665 1008.78 489.893 1006.45 488.381C1004.28 486.946 1002.66 484.807 1001.88 482.322L1006.65 480.569C1007.31 482.096 1008.39 483.404 1009.76 484.341C1011.15 485.276 1012.8 485.76 1014.48 485.728C1016.09 485.813 1017.68 485.331 1018.98 484.366C1020.12 483.406 1020.74 481.962 1020.66 480.472C1020.66 479.788 1020.5 479.111 1020.19 478.501C1019.92 477.955 1019.57 477.454 1019.15 477.016C1018.61 476.529 1018.01 476.127 1017.35 475.824C1016.54 475.419 1015.86 475.111 1015.33 474.899C1014.79 474.689 1014.01 474.405 1012.97 474.047C1011.67 473.593 1010.7 473.237 1010.05 472.977C1009.17 472.603 1008.32 472.172 1007.5 471.687C1006.61 471.217 1005.81 470.61 1005.11 469.887C1004.51 469.181 1004.03 468.384 1003.68 467.526C1002.3 464.171 1003.22 460.31 1005.97 457.938C1007.91 456.219 1010.56 455.359 1013.89 455.359C1016.68 455.359 1018.98 455.975 1020.78 457.208C1022.52 458.371 1023.81 460.111 1024.4 462.124L1019.73 463.681C1019.26 462.627 1018.47 461.749 1017.47 461.175C1016.26 460.503 1014.89 460.175 1013.51 460.226C1012.15 460.148 1010.81 460.525 1009.69 461.296C1008.76 462.015 1008.24 463.142 1008.3 464.314C1008.31 465.209 1008.7 466.059 1009.37 466.65C1010.02 467.287 1010.78 467.798 1011.61 468.159C1012.39 468.483 1013.57 468.921 1015.16 469.473C1016.13 469.83 1016.85 470.098 1017.32 470.276C1017.79 470.454 1018.48 470.754 1019.39 471.176C1020.12 471.498 1020.82 471.881 1021.48 472.32C1022.08 472.748 1022.65 473.211 1023.18 473.707C1023.77 474.216 1024.27 474.816 1024.67 475.483C1025.05 476.176 1025.34 476.911 1025.54 477.673C1025.79 478.568 1025.92 479.494 1025.91 480.423C1025.91 483.603 1024.82 486.093 1022.65 487.893C1020.48 489.695 1017.69 490.595 1014.28 490.595ZM1045.46 490.011L1033.79 455.943H1039.24L1046.97 479.693C1047.4 480.971 1047.76 482.27 1048.04 483.587C1048.33 482.27 1048.68 480.97 1049.11 479.693L1056.75 455.943H1062.15L1050.52 490.011H1045.46ZM1072.46 490.011V455.943H1093.57V460.713H1077.52V470.057H1087.88V474.827H1077.52V485.241H1094.64V490.011H1072.46ZM1107.53 490.011V455.943H1112.59V485.144H1129.22V490.011H1107.53ZM1148.29 460.81V490.011H1143.23V460.81H1133.6V455.943H1157.92V460.81L1148.29 460.81ZM1168.38 490.011V455.943H1189.49V460.713H1173.44V470.057H1183.8V474.827H1173.44V485.241H1190.56V490.011H1168.38Z" fill="#4A4A55"/>
<path d="M978.805 449.463C972.869 440.962 961.144 438.442 952.667 443.847L937.779 453.341C933.712 455.901 930.911 460.056 930.062 464.787C929.352 468.729 929.976 472.795 931.836 476.342C930.562 478.277 929.692 480.449 929.281 482.729C928.424 487.552 929.545 492.516 932.39 496.502C938.328 505.004 950.052 507.523 958.528 502.119L973.417 492.625C977.484 490.065 980.285 485.91 981.133 481.178C981.843 477.236 981.219 473.17 979.36 469.623C980.634 467.689 981.503 465.516 981.914 463.236C982.772 458.414 981.651 453.449 978.805 449.463Z" fill="#FF3E00"/>
<path d="M951.212 497.302C946.414 498.55 941.346 496.671 938.52 492.594C936.808 490.198 936.134 487.212 936.65 484.312C936.736 483.84 936.855 483.376 937.005 482.921L937.286 482.065L938.048 482.626C939.81 483.921 941.78 484.905 943.872 485.537L944.426 485.705L944.375 486.258C944.307 487.044 944.52 487.828 944.975 488.473C945.826 489.7 947.352 490.267 948.797 489.892C949.12 489.805 949.429 489.67 949.711 489.49L964.6 479.997C965.336 479.533 965.844 478.78 965.998 477.923C966.153 477.049 965.95 476.149 965.435 475.426C964.584 474.198 963.057 473.631 961.612 474.006C961.288 474.093 960.98 474.228 960.698 474.408L955.017 478.032C954.083 478.626 953.063 479.074 951.994 479.36C947.195 480.609 942.127 478.729 939.301 474.653C937.589 472.256 936.915 469.27 937.43 466.37C937.941 463.525 939.625 461.026 942.071 459.487L956.958 449.994C957.893 449.398 958.913 448.95 959.984 448.664C964.782 447.415 969.85 449.295 972.676 453.371C974.388 455.768 975.062 458.754 974.547 461.654C974.46 462.125 974.341 462.59 974.191 463.045L973.91 463.9L973.148 463.341C971.387 462.045 969.417 461.06 967.324 460.428L966.77 460.26L966.821 459.707C966.888 458.921 966.676 458.137 966.221 457.492C965.37 456.265 963.845 455.698 962.399 456.073C962.076 456.16 961.767 456.295 961.485 456.475L946.596 465.969C945.86 466.433 945.352 467.185 945.198 468.043C945.043 468.917 945.246 469.816 945.761 470.539C946.612 471.767 948.138 472.334 949.584 471.959C949.907 471.873 950.216 471.737 950.498 471.557L956.179 467.935C957.113 467.34 958.132 466.891 959.202 466.605C964.001 465.357 969.069 467.237 971.895 471.313C973.606 473.71 974.281 476.695 973.765 479.596C973.255 482.441 971.57 484.94 969.125 486.479L954.238 495.972C953.303 496.567 952.283 497.016 951.212 497.302" fill="white"/>
<path d="M494.579 210.907C495.059 211.181 495.636 210.997 495.869 210.496C496.101 209.995 495.901 209.367 495.421 209.093L494.579 210.907ZM341.151 123.374L342.019 123.87L342.861 122.055L341.992 121.56L341.151 123.374ZM348.849 125.472L347.981 124.976L347.139 126.791L348.008 127.286L348.849 125.472ZM353.151 130.22L354.019 130.716L354.861 128.902L353.992 128.406L353.151 130.22ZM360.849 132.318L359.981 131.823L359.139 133.637L360.008 134.132L360.849 132.318ZM365.151 137.066L366.019 137.562L366.861 135.748L365.992 135.252L365.151 137.066ZM372.849 139.164L371.981 138.669L371.139 140.483L372.008 140.979L372.849 139.164ZM377.151 143.913L378.019 144.408L378.861 142.594L377.992 142.098L377.151 143.913ZM384.849 146.01L383.981 145.515L383.139 147.329L384.008 147.825L384.849 146.01ZM389.151 150.759L390.019 151.254L390.861 149.44L389.992 148.945L389.151 150.759ZM396.849 152.857L395.981 152.361L395.139 154.175L396.008 154.671L396.849 152.857ZM401.151 157.605L402.019 158.1L402.861 156.286L401.992 155.791L401.151 157.605ZM408.849 159.703L407.981 159.207L407.139 161.021L408.008 161.517L408.849 159.703ZM413.151 164.451L414.019 164.947L414.861 163.132L413.992 162.637L413.151 164.451ZM420.849 166.549L419.981 166.053L419.139 167.868L420.008 168.363L420.849 166.549ZM425.151 171.297L426.019 171.793L426.861 169.979L425.992 169.483L425.151 171.297ZM432.849 173.395L431.981 172.9L431.139 174.714L432.008 175.209L432.849 173.395ZM437.151 178.143L438.019 178.639L438.861 176.825L437.992 176.329L437.151 178.143ZM444.849 180.241L443.981 179.746L443.139 181.56L444.008 182.055L444.849 180.241ZM449.151 184.99L450.019 185.485L450.861 183.671L449.992 183.175L449.151 184.99ZM456.849 187.087L455.981 186.592L455.139 188.406L456.008 188.902L456.849 187.087ZM461.151 191.836L462.019 192.331L462.861 190.517L461.992 190.021L461.151 191.836ZM468.849 193.934L467.981 193.438L467.139 195.252L468.008 195.748L468.849 193.934ZM473.151 198.682L474.019 199.177L474.861 197.363L473.992 196.868L473.151 198.682ZM480.849 200.78L479.981 200.284L479.139 202.098L480.008 202.594L480.849 200.78ZM485.151 205.528L486.019 206.024L486.861 204.209L485.992 203.714L485.151 205.528ZM492.849 207.626L491.981 207.13L491.139 208.945L492.008 209.44L492.849 207.626ZM338.579 121.907L341.151 123.374L341.992 121.56L339.421 120.093L338.579 121.907ZM348.008 127.286L353.151 130.22L353.992 128.406L348.849 125.472L348.008 127.286ZM360.008 134.132L365.151 137.066L365.992 135.252L360.849 132.318L360.008 134.132ZM372.008 140.979L377.151 143.913L377.992 142.098L372.849 139.164L372.008 140.979ZM384.008 147.825L389.151 150.759L389.992 148.945L384.849 146.01L384.008 147.825ZM396.008 154.671L401.151 157.605L401.992 155.791L396.849 152.857L396.008 154.671ZM408.008 161.517L413.151 164.451L413.992 162.637L408.849 159.703L408.008 161.517ZM420.008 168.363L425.151 171.297L425.992 169.483L420.849 166.549L420.008 168.363ZM432.008 175.209L437.151 178.143L437.992 176.329L432.849 173.395L432.008 175.209ZM444.008 182.055L449.151 184.99L449.992 183.175L444.849 180.241L444.008 182.055ZM456.008 188.902L461.151 191.836L461.992 190.021L456.849 187.087L456.008 188.902ZM468.008 195.748L473.151 198.682L473.992 196.868L468.849 193.934L468.008 195.748ZM480.008 202.594L485.151 205.528L485.992 203.714L480.849 200.78L480.008 202.594ZM492.008 209.44L494.579 210.907L495.421 209.093L492.849 207.626L492.008 209.44Z" fill="#9554EA"/>
<path d="M906.882 130.471C907.142 129.983 906.958 129.378 906.471 129.118C905.983 128.858 905.378 129.042 905.118 129.529L906.882 130.471ZM780.326 367.764L780.797 366.881L779.032 365.94L778.561 366.823L780.326 367.764ZM782.411 359.605L781.94 360.487L783.705 361.428L784.176 360.546L782.411 359.605ZM787.063 355.132L787.533 354.25L785.769 353.309L785.298 354.191L787.063 355.132ZM789.148 346.973L788.677 347.855L790.442 348.797L790.912 347.914L789.148 346.973ZM793.8 342.501L794.27 341.618L792.506 340.677L792.035 341.559L793.8 342.501ZM795.885 334.341L795.414 335.224L797.179 336.165L797.649 335.283L795.885 334.341ZM800.536 329.869L801.007 328.987L799.242 328.046L798.772 328.928L800.536 329.869ZM802.621 321.71L802.151 322.592L803.916 323.533L804.386 322.651L802.621 321.71ZM807.273 317.238L807.744 316.355L805.979 315.414L805.509 316.296L807.273 317.238ZM809.358 309.078L808.888 309.961L810.652 310.902L811.123 310.019L809.358 309.078ZM814.01 304.606L814.481 303.724L812.716 302.782L812.245 303.665L814.01 304.606ZM816.095 296.447L815.625 297.329L817.389 298.27L817.86 297.388L816.095 296.447ZM820.747 291.974L821.218 291.092L819.453 290.151L818.982 291.033L820.747 291.974ZM822.832 283.815L822.361 284.697L824.126 285.639L824.597 284.756L822.832 283.815ZM827.484 279.343L827.954 278.46L826.19 277.519L825.719 278.402L827.484 279.343ZM829.569 271.184L829.098 272.066L830.863 273.007L831.333 272.125L829.569 271.184ZM834.221 266.711L834.691 265.829L832.927 264.888L832.456 265.77L834.221 266.711ZM836.306 258.552L835.835 259.434L837.6 260.376L838.07 259.493L836.306 258.552ZM840.958 254.08L841.428 253.197L839.663 252.256L839.193 253.138L840.958 254.08ZM843.042 245.92L842.572 246.803L844.337 247.744L844.807 246.862L843.042 245.92ZM847.694 241.448L848.165 240.566L846.4 239.624L845.93 240.507L847.694 241.448ZM849.779 233.289L849.309 234.171L851.073 235.112L851.544 234.23L849.779 233.289ZM854.431 228.816L854.902 227.934L853.137 226.993L852.667 227.875L854.431 228.816ZM856.516 220.657L856.046 221.54L857.81 222.481L858.281 221.598L856.516 220.657ZM861.168 216.185L861.639 215.303L859.874 214.361L859.403 215.244L861.168 216.185ZM863.253 208.026L862.782 208.908L864.547 209.849L865.018 208.967L863.253 208.026ZM867.905 203.553L868.376 202.671L866.611 201.73L866.14 202.612L867.905 203.553ZM869.99 195.394L869.519 196.276L871.284 197.218L871.755 196.335L869.99 195.394ZM874.642 190.922L875.112 190.039L873.348 189.098L872.877 189.981L874.642 190.922ZM876.727 182.762L876.256 183.645L878.021 184.586L878.491 183.704L876.727 182.762ZM881.379 178.29L881.849 177.408L880.084 176.467L879.614 177.349L881.379 178.29ZM883.464 170.131L882.993 171.013L884.758 171.954L885.228 171.072L883.464 170.131ZM888.115 165.659L888.586 164.776L886.821 163.835L886.351 164.717L888.115 165.659ZM890.2 157.499L889.73 158.382L891.494 159.323L891.965 158.44L890.2 157.499ZM894.852 153.027L895.323 152.145L893.558 151.203L893.088 152.086L894.852 153.027ZM896.937 144.868L896.467 145.75L898.231 146.691L898.702 145.809L896.937 144.868ZM901.589 140.395L902.06 139.513L900.295 138.572L899.824 139.454L901.589 140.395ZM903.674 132.236L903.203 133.118L904.968 134.06L905.439 133.177L903.674 132.236ZM778.882 370.471L780.326 367.764L778.561 366.823L777.118 369.529L778.882 370.471ZM784.176 360.546L787.063 355.132L785.298 354.191L782.411 359.605L784.176 360.546ZM790.912 347.914L793.8 342.501L792.035 341.559L789.148 346.973L790.912 347.914ZM797.649 335.283L800.536 329.869L798.772 328.928L795.885 334.341L797.649 335.283ZM804.386 322.651L807.273 317.238L805.509 316.296L802.621 321.71L804.386 322.651ZM811.123 310.019L814.01 304.606L812.245 303.665L809.358 309.078L811.123 310.019ZM817.86 297.388L820.747 291.974L818.982 291.033L816.095 296.447L817.86 297.388ZM824.597 284.756L827.484 279.343L825.719 278.402L822.832 283.815L824.597 284.756ZM831.333 272.125L834.221 266.711L832.456 265.77L829.569 271.184L831.333 272.125ZM838.07 259.493L840.958 254.08L839.193 253.138L836.306 258.552L838.07 259.493ZM844.807 246.862L847.694 241.448L845.93 240.507L843.042 245.92L844.807 246.862ZM851.544 234.23L854.431 228.816L852.667 227.875L849.779 233.289L851.544 234.23ZM858.281 221.598L861.168 216.185L859.403 215.244L856.516 220.657L858.281 221.598ZM865.018 208.967L867.905 203.553L866.14 202.612L863.253 208.026L865.018 208.967ZM871.755 196.335L874.642 190.922L872.877 189.981L869.99 195.394L871.755 196.335ZM878.491 183.704L881.379 178.29L879.614 177.349L876.727 182.762L878.491 183.704ZM885.228 171.072L888.115 165.659L886.351 164.717L883.464 170.131L885.228 171.072ZM891.965 158.44L894.852 153.027L893.088 152.086L890.2 157.499L891.965 158.44ZM898.702 145.809L901.589 140.395L899.824 139.454L896.937 144.868L898.702 145.809ZM905.439 133.177L906.882 130.471L905.118 129.529L903.674 132.236L905.439 133.177Z" fill="#6E74EE"/>
<path d="M906.48 300.877C906.964 300.612 907.142 300.005 906.877 299.52C906.612 299.036 906.005 298.858 905.52 299.123L906.48 300.877ZM781.223 369.377L782.1 368.898L781.14 367.143L780.263 367.623L781.223 369.377ZM787.577 363.623L786.7 364.102L787.66 365.857L788.537 365.377L787.577 363.623ZM794.023 362.377L794.9 361.898L793.94 360.143L793.063 360.623L794.023 362.377ZM800.377 356.623L799.5 357.102L800.46 358.857L801.337 358.377L800.377 356.623ZM806.823 355.377L807.7 354.898L806.74 353.143L805.863 353.623L806.823 355.377ZM813.177 349.623L812.3 350.102L813.26 351.857L814.137 351.377L813.177 349.623ZM819.623 348.377L820.5 347.898L819.54 346.143L818.663 346.623L819.623 348.377ZM825.977 342.623L825.1 343.102L826.06 344.857L826.937 344.377L825.977 342.623ZM832.423 341.377L833.3 340.898L832.34 339.143L831.463 339.623L832.423 341.377ZM838.777 335.623L837.9 336.102L838.86 337.857L839.737 337.377L838.777 335.623ZM845.223 334.377L846.1 333.898L845.14 332.143L844.263 332.623L845.223 334.377ZM851.577 328.623L850.7 329.102L851.66 330.857L852.537 330.377L851.577 328.623ZM858.023 327.377L858.9 326.898L857.94 325.143L857.063 325.623L858.023 327.377ZM864.377 321.623L863.5 322.102L864.46 323.857L865.337 323.377L864.377 321.623ZM870.823 320.377L871.7 319.898L870.74 318.143L869.863 318.623L870.823 320.377ZM877.177 314.623L876.3 315.102L877.26 316.857L878.137 316.377L877.177 314.623ZM883.623 313.377L884.5 312.898L883.54 311.143L882.663 311.623L883.623 313.377ZM889.977 307.623L889.1 308.102L890.06 309.857L890.937 309.377L889.977 307.623ZM896.423 306.377L897.3 305.898L896.34 304.143L895.463 304.623L896.423 306.377ZM902.777 300.623L901.9 301.102L902.86 302.857L903.737 302.377L902.777 300.623ZM778.48 370.877L781.223 369.377L780.263 367.623L777.52 369.123L778.48 370.877ZM788.537 365.377L794.023 362.377L793.063 360.623L787.577 363.623L788.537 365.377ZM801.337 358.377L806.823 355.377L805.863 353.623L800.377 356.623L801.337 358.377ZM814.137 351.377L819.623 348.377L818.663 346.623L813.177 349.623L814.137 351.377ZM826.937 344.377L832.423 341.377L831.463 339.623L825.977 342.623L826.937 344.377ZM839.737 337.377L845.223 334.377L844.263 332.623L838.777 335.623L839.737 337.377ZM852.537 330.377L858.023 327.377L857.063 325.623L851.577 328.623L852.537 330.377ZM865.337 323.377L870.823 320.377L869.863 318.623L864.377 321.623L865.337 323.377ZM878.137 316.377L883.623 313.377L882.663 311.623L877.177 314.623L878.137 316.377ZM890.937 309.377L896.423 306.377L895.463 304.623L889.977 307.623L890.937 309.377ZM903.737 302.377L906.48 300.877L905.52 299.123L902.777 300.623L903.737 302.377Z" fill="#6E74EE"/>
<path d="M905.388 469.791C905.825 470.129 906.453 470.049 906.791 469.612C907.129 469.175 907.049 468.547 906.612 468.209L905.388 469.791ZM779.674 372.559L780.465 373.171L781.689 371.589L780.898 370.977L779.674 372.559ZM786.993 375.691L786.202 375.079L784.978 376.661L785.769 377.273L786.993 375.691ZM790.341 380.809L791.132 381.421L792.355 379.839L791.564 379.227L790.341 380.809ZM797.659 383.941L796.868 383.329L795.645 384.911L796.436 385.523L797.659 383.941ZM801.007 389.059L801.798 389.671L803.022 388.089L802.231 387.477L801.007 389.059ZM808.326 392.191L807.535 391.579L806.311 393.161L807.102 393.773L808.326 392.191ZM811.674 397.309L812.465 397.921L813.689 396.339L812.898 395.727L811.674 397.309ZM818.993 400.441L818.202 399.829L816.978 401.411L817.769 402.023L818.993 400.441ZM822.341 405.559L823.132 406.171L824.355 404.589L823.564 403.977L822.341 405.559ZM829.659 408.691L828.868 408.079L827.645 409.661L828.436 410.273L829.659 408.691ZM833.007 413.809L833.798 414.421L835.022 412.839L834.231 412.227L833.007 413.809ZM840.326 416.941L839.535 416.329L838.311 417.911L839.102 418.523L840.326 416.941ZM843.674 422.059L844.465 422.671L845.689 421.089L844.898 420.477L843.674 422.059ZM850.993 425.191L850.202 424.579L848.978 426.161L849.769 426.773L850.993 425.191ZM854.341 430.309L855.132 430.921L856.355 429.339L855.564 428.727L854.341 430.309ZM861.659 433.441L860.868 432.829L859.645 434.411L860.436 435.023L861.659 433.441ZM865.007 438.559L865.798 439.171L867.022 437.589L866.231 436.977L865.007 438.559ZM872.326 441.691L871.535 441.079L870.311 442.661L871.102 443.273L872.326 441.691ZM875.674 446.809L876.465 447.421L877.689 445.839L876.898 445.227L875.674 446.809ZM882.993 449.941L882.202 449.329L880.978 450.911L881.769 451.523L882.993 449.941ZM886.341 455.059L887.132 455.671L888.355 454.089L887.564 453.477L886.341 455.059ZM893.659 458.191L892.868 457.579L891.645 459.161L892.436 459.773L893.659 458.191ZM897.007 463.309L897.798 463.921L899.022 462.339L898.231 461.727L897.007 463.309ZM904.326 466.441L903.535 465.829L902.311 467.411L903.102 468.023L904.326 466.441ZM777.388 370.791L779.674 372.559L780.898 370.977L778.612 369.209L777.388 370.791ZM785.769 377.273L790.341 380.809L791.564 379.227L786.993 375.691L785.769 377.273ZM796.436 385.523L801.007 389.059L802.231 387.477L797.659 383.941L796.436 385.523ZM807.102 393.773L811.674 397.309L812.898 395.727L808.326 392.191L807.102 393.773ZM817.769 402.023L822.341 405.559L823.564 403.977L818.993 400.441L817.769 402.023ZM828.436 410.273L833.007 413.809L834.231 412.227L829.659 408.691L828.436 410.273ZM839.102 418.523L843.674 422.059L844.898 420.477L840.326 416.941L839.102 418.523ZM849.769 426.773L854.341 430.309L855.564 428.727L850.993 425.191L849.769 426.773ZM860.436 435.023L865.007 438.559L866.231 436.977L861.659 433.441L860.436 435.023ZM871.102 443.273L875.674 446.809L876.898 445.227L872.326 441.691L871.102 443.273ZM881.769 451.523L886.341 455.059L887.564 453.477L882.993 449.941L881.769 451.523ZM892.436 459.773L897.007 463.309L898.231 461.727L893.659 458.191L892.436 459.773ZM903.102 468.023L905.388 469.791L906.612 468.209L904.326 466.441L903.102 468.023Z" fill="#6E74EE"/>
<path d="M495.155 210.988C495.697 210.884 496.067 210.357 495.982 209.811C495.897 209.265 495.388 208.908 494.845 209.012L495.155 210.988ZM347.499 239.423L348.481 239.234L348.171 237.258L347.189 237.447L347.499 239.423ZM355.012 235.941L354.03 236.13L354.34 238.106L355.322 237.917L355.012 235.941ZM361.189 236.787L362.171 236.598L361.861 234.622L360.879 234.811L361.189 236.787ZM368.702 233.304L367.72 233.493L368.03 235.469L369.011 235.28L368.702 233.304ZM374.879 234.15L375.861 233.961L375.551 231.985L374.569 232.174L374.879 234.15ZM382.392 230.668L381.41 230.857L381.719 232.833L382.701 232.644L382.392 230.668ZM388.569 231.514L389.551 231.325L389.241 229.349L388.259 229.538L388.569 231.514ZM396.082 228.032L395.1 228.221L395.409 230.197L396.391 230.007L396.082 228.032ZM402.259 228.878L403.24 228.688L402.931 226.713L401.949 226.902L402.259 228.878ZM409.772 225.395L408.79 225.584L409.099 227.56L410.081 227.371L409.772 225.395ZM415.948 226.241L416.93 226.052L416.621 224.076L415.639 224.265L415.948 226.241ZM423.462 222.759L422.48 222.948L422.789 224.924L423.771 224.735L423.462 222.759ZM429.638 223.605L430.62 223.416L430.311 221.44L429.329 221.629L429.638 223.605ZM437.152 220.122L436.17 220.312L436.479 222.287L437.461 222.098L437.152 220.122ZM443.328 220.968L444.31 220.779L444.001 218.803L443.019 218.993L443.328 220.968ZM450.842 217.486L449.86 217.675L450.169 219.651L451.151 219.462L450.842 217.486ZM457.018 218.332L458 218.143L457.691 216.167L456.709 216.356L457.018 218.332ZM464.532 214.85L463.55 215.039L463.859 217.015L464.841 216.826L464.532 214.85ZM470.708 215.696L471.69 215.507L471.381 213.531L470.399 213.72L470.708 215.696ZM478.222 212.213L477.24 212.402L477.549 214.378L478.531 214.189L478.222 212.213ZM484.398 213.059L485.38 212.87L485.071 210.894L484.089 211.083L484.398 213.059ZM491.912 209.577L490.93 209.766L491.239 211.742L492.221 211.553L491.912 209.577ZM344.565 239.988L347.499 239.423L347.189 237.447L344.256 238.012L344.565 239.988ZM355.322 237.917L361.189 236.787L360.879 234.811L355.012 235.941L355.322 237.917ZM369.011 235.28L374.879 234.15L374.569 232.174L368.702 233.304L369.011 235.28ZM382.701 232.644L388.569 231.514L388.259 229.538L382.392 230.668L382.701 232.644ZM396.391 230.007L402.259 228.878L401.949 226.902L396.082 228.032L396.391 230.007ZM410.081 227.371L415.948 226.241L415.639 224.265L409.772 225.395L410.081 227.371ZM423.771 224.735L429.638 223.605L429.329 221.629L423.462 222.759L423.771 224.735ZM437.461 222.098L443.328 220.968L443.019 218.993L437.152 220.122L437.461 222.098ZM451.151 219.462L457.018 218.332L456.709 216.356L450.842 217.486L451.151 219.462ZM464.841 216.826L470.708 215.696L470.399 213.72L464.532 214.85L464.841 216.826ZM478.531 214.189L484.398 213.059L484.089 211.083L478.222 212.213L478.531 214.189ZM492.221 211.553L495.155 210.988L494.845 209.012L491.912 209.577L492.221 211.553Z" fill="#9554EA"/>
<path d="M495.628 210.778C496.02 210.389 496.056 209.725 495.709 209.295C495.362 208.866 494.763 208.833 494.372 209.222L495.628 210.778ZM341.718 363.702L342.427 362.997L341.17 361.441L340.461 362.146L341.718 363.702ZM346.032 356.611L345.323 357.315L346.58 358.871L347.289 358.166L346.032 356.611ZM351.468 354.014L352.177 353.31L350.92 351.754L350.211 352.459L351.468 354.014ZM355.782 346.923L355.073 347.628L356.33 349.184L357.039 348.479L355.782 346.923ZM361.218 344.327L361.927 343.622L360.67 342.066L359.961 342.771L361.218 344.327ZM365.532 337.236L364.823 337.94L366.08 339.496L366.789 338.791L365.532 337.236ZM370.968 334.639L371.677 333.935L370.42 332.379L369.711 333.084L370.968 334.639ZM375.282 327.548L374.573 328.253L375.83 329.809L376.539 329.104L375.282 327.548ZM380.718 324.952L381.427 324.247L380.17 322.691L379.461 323.396L380.718 324.952ZM385.032 317.861L384.323 318.565L385.58 320.121L386.289 319.416L385.032 317.861ZM390.468 315.264L391.177 314.56L389.92 313.004L389.211 313.709L390.468 315.264ZM394.782 308.173L394.073 308.878L395.33 310.434L396.039 309.729L394.782 308.173ZM400.218 305.577L400.927 304.872L399.67 303.316L398.961 304.021L400.218 305.577ZM404.532 298.486L403.823 299.19L405.08 300.746L405.789 300.041L404.532 298.486ZM409.968 295.889L410.677 295.185L409.42 293.629L408.711 294.334L409.968 295.889ZM414.282 288.798L413.573 289.503L414.83 291.059L415.539 290.354L414.282 288.798ZM419.718 286.202L420.427 285.497L419.17 283.941L418.461 284.646L419.718 286.202ZM424.032 279.111L423.323 279.815L424.58 281.371L425.289 280.666L424.032 279.111ZM429.468 276.514L430.177 275.81L428.92 274.254L428.211 274.959L429.468 276.514ZM433.782 269.423L433.073 270.128L434.33 271.684L435.039 270.979L433.782 269.423ZM439.218 266.827L439.927 266.122L438.67 264.566L437.961 265.271L439.218 266.827ZM443.532 259.736L442.823 260.44L444.08 261.996L444.789 261.291L443.532 259.736ZM448.968 257.139L449.677 256.435L448.42 254.879L447.711 255.584L448.968 257.139ZM453.282 250.048L452.573 250.753L453.83 252.309L454.539 251.604L453.282 250.048ZM458.718 247.452L459.427 246.747L458.17 245.191L457.461 245.896L458.718 247.452ZM463.032 240.361L462.323 241.065L463.58 242.621L464.289 241.916L463.032 240.361ZM468.468 237.764L469.177 237.06L467.92 235.504L467.211 236.209L468.468 237.764ZM472.782 230.673L472.073 231.378L473.33 232.934L474.039 232.229L472.782 230.673ZM478.218 228.077L478.927 227.372L477.67 225.816L476.961 226.521L478.218 228.077ZM482.532 220.986L481.823 221.69L483.08 223.246L483.789 222.541L482.532 220.986ZM487.968 218.389L488.677 217.685L487.42 216.129L486.711 216.834L487.968 218.389ZM492.282 211.298L491.573 212.003L492.83 213.559L493.539 212.854L492.282 211.298ZM339.628 365.778L341.718 363.702L340.461 362.146L338.372 364.222L339.628 365.778ZM347.289 358.166L351.468 354.014L350.211 352.459L346.032 356.611L347.289 358.166ZM357.039 348.479L361.218 344.327L359.961 342.771L355.782 346.923L357.039 348.479ZM366.789 338.791L370.968 334.639L369.711 333.084L365.532 337.236L366.789 338.791ZM376.539 329.104L380.718 324.952L379.461 323.396L375.282 327.548L376.539 329.104ZM386.289 319.416L390.468 315.264L389.211 313.709L385.032 317.861L386.289 319.416ZM396.039 309.729L400.218 305.577L398.961 304.021L394.782 308.173L396.039 309.729ZM405.789 300.041L409.968 295.889L408.711 294.334L404.532 298.486L405.789 300.041ZM415.539 290.354L419.718 286.202L418.461 284.646L414.282 288.798L415.539 290.354ZM425.289 280.666L429.468 276.514L428.211 274.959L424.032 279.111L425.289 280.666ZM435.039 270.979L439.218 266.827L437.961 265.271L433.782 269.423L435.039 270.979ZM444.789 261.291L448.968 257.139L447.711 255.584L443.532 259.736L444.789 261.291ZM454.539 251.604L458.718 247.452L457.461 245.896L453.282 250.048L454.539 251.604ZM464.289 241.916L468.468 237.764L467.211 236.209L463.032 240.361L464.289 241.916ZM474.039 232.229L478.218 228.077L476.961 226.521L472.782 230.673L474.039 232.229ZM483.789 222.541L487.968 218.389L486.711 216.834L482.532 220.986L483.789 222.541ZM493.539 212.854L495.628 210.778L494.372 209.222L492.282 211.298L493.539 212.854Z" fill="#9554EA"/>
<path d="M495.824 210.567C496.094 210.085 495.943 209.44 495.488 209.127C495.033 208.814 494.446 208.951 494.176 209.433L495.824 210.567ZM341.277 486.967L341.765 486.094L340.117 484.961L339.629 485.834L341.277 486.967ZM343.505 478.902L343.017 479.775L344.665 480.908L345.153 480.036L343.505 478.902ZM348.06 474.837L348.548 473.964L346.9 472.831L346.412 473.704L348.06 474.837ZM350.288 466.772L349.8 467.645L351.448 468.778L351.936 467.905L350.288 466.772ZM354.843 462.706L355.331 461.834L353.683 460.7L353.195 461.573L354.843 462.706ZM357.07 454.641L356.582 455.514L358.23 456.648L358.718 455.775L357.07 454.641ZM361.625 450.576L362.113 449.703L360.465 448.57L359.977 449.443L361.625 450.576ZM363.853 442.511L363.365 443.384L365.013 444.517L365.501 443.644L363.853 442.511ZM368.408 438.445L368.896 437.573L367.248 436.439L366.76 437.312L368.408 438.445ZM370.636 430.381L370.148 431.253L371.796 432.387L372.284 431.514L370.636 430.381ZM375.19 426.315L375.678 425.442L374.031 424.309L373.542 425.182L375.19 426.315ZM377.418 418.25L376.93 419.123L378.578 420.256L379.066 419.383L377.418 418.25ZM381.973 414.185L382.461 413.312L380.813 412.179L380.325 413.051L381.973 414.185ZM384.201 406.12L383.713 406.993L385.361 408.126L385.849 407.253L384.201 406.12ZM388.756 402.054L389.244 401.181L387.596 400.048L387.108 400.921L388.756 402.054ZM390.983 393.989L390.495 394.862L392.143 395.995L392.631 395.123L390.983 393.989ZM395.538 389.924L396.026 389.051L394.378 387.918L393.89 388.791L395.538 389.924ZM397.766 381.859L397.278 382.732L398.926 383.865L399.414 382.992L397.766 381.859ZM402.321 377.793L402.809 376.92L401.161 375.787L400.673 376.66L402.321 377.793ZM404.549 369.728L404.061 370.601L405.709 371.734L406.197 370.862L404.549 369.728ZM409.103 365.663L409.592 364.79L407.944 363.657L407.456 364.53L409.103 365.663ZM411.331 357.598L410.843 358.471L412.491 359.604L412.979 358.731L411.331 357.598ZM415.886 353.532L416.374 352.66L414.726 351.526L414.238 352.399L415.886 353.532ZM418.114 345.468L417.626 346.34L419.274 347.474L419.762 346.601L418.114 345.468ZM422.669 341.402L423.157 340.529L421.509 339.396L421.021 340.269L422.669 341.402ZM424.897 333.337L424.408 334.21L426.056 335.343L426.544 334.47L424.897 333.337ZM429.451 329.272L429.939 328.399L428.291 327.266L427.803 328.138L429.451 329.272ZM431.679 321.207L431.191 322.079L432.839 323.213L433.327 322.34L431.679 321.207ZM436.234 317.141L436.722 316.268L435.074 315.135L434.586 316.008L436.234 317.141ZM438.462 309.076L437.974 309.949L439.622 311.082L440.11 310.209L438.462 309.076ZM443.017 305.011L443.505 304.138L441.857 303.005L441.369 303.877L443.017 305.011ZM445.244 296.946L444.756 297.819L446.404 298.952L446.892 298.079L445.244 296.946ZM449.799 292.88L450.287 292.007L448.639 290.874L448.151 291.747L449.799 292.88ZM452.027 284.815L451.539 285.688L453.187 286.821L453.675 285.949L452.027 284.815ZM456.582 280.75L457.07 279.877L455.422 278.744L454.934 279.617L456.582 280.75ZM458.81 272.685L458.322 273.558L459.97 274.691L460.458 273.818L458.81 272.685ZM463.364 268.619L463.852 267.747L462.204 266.613L461.716 267.486L463.364 268.619ZM465.592 260.554L465.104 261.427L466.752 262.561L467.24 261.688L465.592 260.554ZM470.147 256.489L470.635 255.616L468.987 254.483L468.499 255.356L470.147 256.489ZM472.375 248.424L471.887 249.297L473.535 250.43L474.023 249.557L472.375 248.424ZM476.93 244.359L477.418 243.486L475.77 242.352L475.282 243.225L476.93 244.359ZM479.157 236.294L478.669 237.166L480.317 238.3L480.805 237.427L479.157 236.294ZM483.712 232.228L484.2 231.355L482.552 230.222L482.064 231.095L483.712 232.228ZM485.94 224.163L485.452 225.036L487.1 226.169L487.588 225.296L485.94 224.163ZM490.495 220.098L490.983 219.225L489.335 218.092L488.847 218.964L490.495 220.098ZM492.723 212.033L492.235 212.906L493.883 214.039L494.371 213.166L492.723 212.033ZM339.824 489.567L341.277 486.967L339.629 485.834L338.176 488.433L339.824 489.567ZM345.153 480.036L348.06 474.837L346.412 473.704L343.505 478.902L345.153 480.036ZM351.936 467.905L354.843 462.706L353.195 461.573L350.288 466.772L351.936 467.905ZM358.718 455.775L361.625 450.576L359.977 449.443L357.07 454.641L358.718 455.775ZM365.501 443.644L368.408 438.445L366.76 437.312L363.853 442.511L365.501 443.644ZM372.284 431.514L375.19 426.315L373.542 425.182L370.636 430.381L372.284 431.514ZM379.066 419.383L381.973 414.185L380.325 413.051L377.418 418.25L379.066 419.383ZM385.849 407.253L388.756 402.054L387.108 400.921L384.201 406.12L385.849 407.253ZM392.631 395.123L395.538 389.924L393.89 388.791L390.983 393.989L392.631 395.123ZM399.414 382.992L402.321 377.793L400.673 376.66L397.766 381.859L399.414 382.992ZM406.197 370.862L409.103 365.663L407.456 364.53L404.549 369.728L406.197 370.862ZM412.979 358.731L415.886 353.532L414.238 352.399L411.331 357.598L412.979 358.731ZM419.762 346.601L422.669 341.402L421.021 340.269L418.114 345.468L419.762 346.601ZM426.544 334.47L429.451 329.272L427.803 328.138L424.897 333.337L426.544 334.47ZM433.327 322.34L436.234 317.141L434.586 316.008L431.679 321.207L433.327 322.34ZM440.11 310.209L443.017 305.011L441.369 303.877L438.462 309.076L440.11 310.209ZM446.892 298.079L449.799 292.88L448.151 291.747L445.244 296.946L446.892 298.079ZM453.675 285.949L456.582 280.75L454.934 279.617L452.027 284.815L453.675 285.949ZM460.458 273.818L463.364 268.619L461.716 267.486L458.81 272.685L460.458 273.818ZM467.24 261.688L470.147 256.489L468.499 255.356L465.592 260.554L467.24 261.688ZM474.023 249.557L476.93 244.359L475.282 243.225L472.375 248.424L474.023 249.557ZM480.805 237.427L483.712 232.228L482.064 231.095L479.157 236.294L480.805 237.427ZM487.588 225.296L490.495 220.098L488.847 218.964L485.94 224.163L487.588 225.296ZM494.371 213.166L495.824 210.567L494.176 209.433L492.723 212.033L494.371 213.166Z" fill="#9554EA"/>
<rect x="495" y="129" width="282" height="318" rx="19" stroke="url(#paint1_linear_113_109)" stroke-width="2" stroke-dasharray="6 8"/>
<path fill-rule="evenodd" clip-rule="evenodd" d="M949.452 113.698C948.258 115.444 947.091 117.291 945.969 119.228C944.847 121.165 943.825 123.096 942.905 125C943.825 126.904 944.847 128.835 945.969 130.772C947.091 132.709 948.258 134.556 949.452 136.302C951.567 136.46 953.756 136.543 956 136.543C958.244 136.543 960.433 136.46 962.548 136.302C963.742 134.556 964.909 132.709 966.031 130.772C967.153 128.835 968.175 126.904 969.095 125C968.175 123.096 967.153 121.165 966.031 119.228C964.909 117.291 963.742 115.444 962.548 113.698C960.433 113.54 958.244 113.457 956 113.457C953.756 113.457 951.567 113.54 949.452 113.698ZM945.437 114.097C944.694 115.253 943.967 116.445 943.258 117.668C942.549 118.892 941.878 120.116 941.244 121.335C940.353 119.229 939.596 117.175 938.976 115.205C940.998 114.755 943.161 114.381 945.437 114.097ZM951.807 110.431C953.183 110.369 954.583 110.337 956 110.337C957.417 110.337 958.817 110.369 960.193 110.431C958.808 108.61 957.402 106.93 956 105.41C954.598 106.93 953.192 108.61 951.807 110.431ZM953.816 103.168C951.755 105.39 949.702 107.923 947.722 110.711C944.31 111.026 941.082 111.531 938.12 112.199C937.783 110.869 937.516 109.589 937.32 108.371C936.81 105.199 936.798 102.525 937.234 100.492C937.671 98.4581 938.51 97.2377 939.565 96.6307C940.62 96.0237 942.1 95.9092 944.086 96.5493C946.071 97.1894 948.388 98.5364 950.89 100.562C951.851 101.341 952.829 102.212 953.816 103.168ZM958.184 103.168C960.245 105.39 962.298 107.923 964.278 110.711C967.69 111.026 970.918 111.531 973.88 112.199C974.217 110.869 974.484 109.589 974.68 108.371C975.19 105.199 975.202 102.525 974.766 100.492C974.329 98.4581 973.49 97.2377 972.435 96.6307C971.38 96.0237 969.9 95.9092 967.914 96.5493C965.929 97.1894 963.612 98.5364 961.11 100.562C960.149 101.341 959.171 102.212 958.184 103.168ZM976.914 112.966C977.274 111.549 977.56 110.177 977.771 108.864C978.317 105.472 978.373 102.381 977.827 99.8392C977.282 97.2974 976.089 95.131 974 93.9288C971.911 92.7267 969.432 92.7809 966.951 93.581C964.469 94.3811 961.811 95.9748 959.136 98.1414C958.1 98.9803 957.052 99.9132 956 100.933C954.948 99.9132 953.9 98.9803 952.864 98.1414C950.189 95.9748 947.531 94.3811 945.049 93.581C942.568 92.7809 940.089 92.7267 938 93.9288C935.911 95.131 934.718 97.2974 934.173 99.8392C933.627 102.381 933.683 105.472 934.229 108.864C934.44 110.177 934.726 111.549 935.086 112.966C933.674 113.365 932.339 113.803 931.093 114.277C927.872 115.503 925.159 117 923.222 118.742C921.286 120.483 920 122.596 920 125C920 127.404 921.286 129.517 923.222 131.258C925.159 133 927.872 134.497 931.093 135.723C932.339 136.197 933.674 136.635 935.086 137.034C934.726 138.451 934.44 139.823 934.229 141.136C933.683 144.528 933.627 147.619 934.173 150.161C934.718 152.703 935.911 154.869 938 156.071C940.089 157.273 942.568 157.219 945.049 156.419C947.531 155.619 950.189 154.025 952.864 151.859C953.9 151.02 954.948 150.087 956 149.067C957.052 150.087 958.1 151.02 959.136 151.859C961.811 154.025 964.469 155.619 966.951 156.419C969.432 157.219 971.911 157.273 974 156.071C976.089 154.869 977.282 152.703 977.827 150.161C978.373 147.619 978.317 144.528 977.771 141.136C977.56 139.823 977.274 138.451 976.914 137.034C978.326 136.635 979.661 136.197 980.907 135.723C984.128 134.497 986.841 133 988.778 131.258C990.714 129.517 992 127.404 992 125C992 122.596 990.714 120.483 988.778 118.742C986.841 117 984.128 115.503 980.907 114.277C979.661 113.803 978.326 113.365 976.914 112.966ZM973.024 115.205C971.002 114.755 968.839 114.381 966.563 114.097C967.306 115.253 968.033 116.445 968.742 117.668C969.451 118.892 970.122 120.116 970.756 121.335C971.647 119.229 972.404 117.175 973.024 115.205ZM972.555 125C973.988 121.898 975.163 118.859 976.064 115.969C977.388 116.343 978.634 116.752 979.791 117.192C982.802 118.338 985.131 119.664 986.68 121.058C988.229 122.451 988.87 123.786 988.87 125C988.87 126.214 988.229 127.549 986.68 128.942C985.131 130.336 982.802 131.662 979.791 132.808C978.634 133.248 977.388 133.657 976.064 134.031C975.163 131.141 973.988 128.102 972.555 125ZM970.756 128.665C970.122 129.884 969.451 131.108 968.742 132.332C968.033 133.555 967.306 134.747 966.563 135.903C968.839 135.619 971.002 135.245 973.024 134.795C972.404 132.825 971.647 130.771 970.756 128.665ZM973.88 137.801C970.918 138.469 967.69 138.974 964.278 139.289C962.298 142.077 960.245 144.61 958.184 146.832C959.171 147.788 960.149 148.659 961.11 149.438C963.612 151.464 965.929 152.811 967.914 153.451C969.9 154.091 971.38 153.976 972.435 153.369C973.49 152.762 974.329 151.542 974.766 149.508C975.202 147.475 975.19 144.801 974.68 141.629C974.484 140.411 974.217 139.131 973.88 137.801ZM956 144.59C957.402 143.07 958.808 141.39 960.193 139.569C958.817 139.631 957.417 139.663 956 139.663C954.583 139.663 953.183 139.631 951.807 139.569C953.192 141.39 954.598 143.07 956 144.59ZM945.437 135.903C944.694 134.747 943.967 133.555 943.258 132.332C942.549 131.108 941.878 129.884 941.244 128.665C940.353 130.771 939.596 132.825 938.976 134.795C940.998 135.245 943.161 135.619 945.437 135.903ZM938.12 137.801C941.082 138.469 944.31 138.974 947.722 139.289C949.702 142.077 951.755 144.61 953.816 146.832C952.829 147.788 951.851 148.659 950.89 149.438C948.388 151.464 946.071 152.811 944.086 153.451C942.1 154.091 940.62 153.976 939.565 153.369C938.51 152.762 937.671 151.542 937.234 149.508C936.798 147.475 936.81 144.801 937.32 141.629C937.516 140.411 937.783 139.131 938.12 137.801ZM935.936 134.031C934.612 133.657 933.366 133.248 932.209 132.808C929.198 131.662 926.869 130.336 925.32 128.942C923.771 127.549 923.13 126.214 923.13 125C923.13 123.786 923.771 122.451 925.32 121.058C926.869 119.664 929.198 118.338 932.209 117.192C933.366 116.752 934.612 116.343 935.936 115.969C936.837 118.859 938.012 121.898 939.445 125C938.012 128.102 936.837 131.141 935.936 134.031ZM956 120.164C953.32 120.164 951.148 122.329 951.148 125C951.148 127.671 953.32 129.836 956 129.836C958.68 129.836 960.852 127.671 960.852 125C960.852 122.329 958.68 120.164 956 120.164ZM948.017 125C948.017 120.606 951.591 117.044 956 117.044C960.409 117.044 963.983 120.606 963.983 125C963.983 129.394 960.409 132.956 956 132.956C951.591 132.956 948.017 129.394 948.017 125Z" fill="#61DAFB"/>
<path d="M1022.48 127.195H1014.46V141H1009.94V106.875H1021.23C1025.08 106.875 1028.03 107.75 1030.09 109.5C1032.17 111.25 1033.21 113.797 1033.21 117.141C1033.21 119.266 1032.63 121.117 1031.48 122.695C1030.34 124.273 1028.74 125.453 1026.7 126.234L1034.71 140.719V141H1029.88L1022.48 127.195ZM1014.46 123.516H1021.38C1023.61 123.516 1025.38 122.938 1026.7 121.781C1028.02 120.625 1028.69 119.078 1028.69 117.141C1028.69 115.031 1028.05 113.414 1026.79 112.289C1025.54 111.164 1023.73 110.594 1021.35 110.578H1014.46V123.516Z" fill="black"/>
<path d="M1047.46 141.469C1044.03 141.469 1041.23 140.344 1039.07 138.094C1036.92 135.828 1035.84 132.805 1035.84 129.023V128.227C1035.84 125.711 1036.31 123.469 1037.27 121.5C1038.24 119.516 1039.58 117.969 1041.3 116.859C1043.03 115.734 1044.91 115.172 1046.92 115.172C1050.22 115.172 1052.78 116.258 1054.61 118.43C1056.44 120.602 1057.35 123.711 1057.35 127.758V129.562H1040.17C1040.24 132.062 1040.96 134.086 1042.35 135.633C1043.76 137.164 1045.54 137.93 1047.7 137.93C1049.23 137.93 1050.53 137.617 1051.59 136.992C1052.65 136.367 1053.58 135.539 1054.38 134.508L1057.03 136.57C1054.9 139.836 1051.71 141.469 1047.46 141.469ZM1046.92 118.734C1045.17 118.734 1043.71 119.375 1042.52 120.656C1041.33 121.922 1040.6 123.703 1040.31 126H1053.02V125.672C1052.89 123.469 1052.3 121.766 1051.24 120.562C1050.17 119.344 1048.74 118.734 1046.92 118.734Z" fill="black"/>
<path d="M1076.13 141C1075.88 140.5 1075.68 139.609 1075.52 138.328C1073.5 140.422 1071.1 141.469 1068.3 141.469C1065.8 141.469 1063.75 140.766 1062.14 139.359C1060.54 137.938 1059.75 136.141 1059.75 133.969C1059.75 131.328 1060.75 129.281 1062.75 127.828C1064.76 126.359 1067.59 125.625 1071.23 125.625H1075.45V123.633C1075.45 122.117 1075 120.914 1074.09 120.023C1073.18 119.117 1071.85 118.664 1070.08 118.664C1068.53 118.664 1067.24 119.055 1066.19 119.836C1065.14 120.617 1064.62 121.562 1064.62 122.672H1060.26C1060.26 121.406 1060.71 120.188 1061.6 119.016C1062.5 117.828 1063.72 116.891 1065.25 116.203C1066.8 115.516 1068.5 115.172 1070.34 115.172C1073.26 115.172 1075.55 115.906 1077.21 117.375C1078.86 118.828 1079.72 120.836 1079.79 123.398V135.07C1079.79 137.398 1080.08 139.25 1080.68 140.625V141H1076.13ZM1068.93 137.695C1070.29 137.695 1071.58 137.344 1072.8 136.641C1074.02 135.938 1074.9 135.023 1075.45 133.898V128.695H1072.05C1066.74 128.695 1064.08 130.25 1064.08 133.359C1064.08 134.719 1064.53 135.781 1065.44 136.547C1066.35 137.312 1067.51 137.695 1068.93 137.695Z" fill="black"/>
<path d="M1094.83 137.93C1096.38 137.93 1097.73 137.461 1098.89 136.523C1100.04 135.586 1100.69 134.414 1100.81 133.008H1104.91C1104.83 134.461 1104.33 135.844 1103.41 137.156C1102.49 138.469 1101.26 139.516 1099.71 140.297C1098.18 141.078 1096.55 141.469 1094.83 141.469C1091.38 141.469 1088.63 140.32 1086.58 138.023C1084.55 135.711 1083.54 132.555 1083.54 128.555V127.828C1083.54 125.359 1083.99 123.164 1084.9 121.242C1085.8 119.32 1087.1 117.828 1088.79 116.766C1090.49 115.703 1092.5 115.172 1094.81 115.172C1097.65 115.172 1100.01 116.023 1101.89 117.727C1103.78 119.43 1104.79 121.641 1104.91 124.359H1100.81C1100.69 122.719 1100.06 121.375 1098.94 120.328C1097.83 119.266 1096.45 118.734 1094.81 118.734C1092.61 118.734 1090.9 119.531 1089.68 121.125C1088.47 122.703 1087.87 124.992 1087.87 127.992V128.812C1087.87 131.734 1088.47 133.984 1089.68 135.562C1090.88 137.141 1092.6 137.93 1094.83 137.93Z" fill="black"/>
<path d="M1113.75 109.5V115.641H1118.48V118.992H1113.75V134.719C1113.75 135.734 1113.96 136.5 1114.38 137.016C1114.8 137.516 1115.52 137.766 1116.54 137.766C1117.04 137.766 1117.73 137.672 1118.6 137.484V141C1117.46 141.312 1116.35 141.469 1115.27 141.469C1113.34 141.469 1111.87 140.883 1110.89 139.711C1109.91 138.539 1109.41 136.875 1109.41 134.719V118.992H1104.8V115.641H1109.41V109.5H1113.75Z" fill="black"/>
<g clip-path="url(#clip0_113_109)">
<path d="M964.619 271.001L956.998 284.164L949.377 271.001H923.999L956.998 328L989.997 271.001H964.619Z" fill="#41B883"/>
<path d="M964.619 271L956.998 284.164L949.377 271H937.198L956.998 305.199L976.797 271H964.619Z" fill="#34495E"/>
</g>
<path d="M1011.66 281.091H1007.23L1020.05 316H1024.41L1037.23 281.091H1032.8L1022.43 310.477H1022.02L1011.66 281.091Z" fill="black"/>
<path d="M1056.7 305.295C1056.7 310.205 1052.95 312.455 1049.95 312.455C1046.61 312.455 1044.22 310 1044.22 306.182V289.818H1040.2V306.455C1040.2 313.136 1043.74 316.341 1048.65 316.341C1052.61 316.341 1055.2 314.227 1056.43 311.568H1056.7V316H1060.72V289.818H1056.7V305.295Z" fill="black"/>
<path d="M1077.15 316.545C1082.47 316.545 1086.35 313.886 1087.58 309.932L1083.69 308.841C1082.67 311.568 1080.3 312.932 1077.15 312.932C1072.43 312.932 1069.17 309.881 1068.98 304.273H1087.99V302.568C1087.99 292.818 1082.19 289.477 1076.74 289.477C1069.65 289.477 1064.94 295.068 1064.94 303.114C1064.94 311.159 1069.58 316.545 1077.15 316.545ZM1068.98 300.795C1069.26 296.722 1072.14 293.091 1076.74 293.091C1081.1 293.091 1083.9 296.364 1083.9 300.795H1068.98Z" fill="black"/>
<path d="M1095.12 316.273C1096.81 316.273 1098.19 314.892 1098.19 313.205C1098.19 311.517 1096.81 310.136 1095.12 310.136C1093.43 310.136 1092.05 311.517 1092.05 313.205C1092.05 314.892 1093.43 316.273 1095.12 316.273Z" fill="black"/>
<path d="M1103.49 289.818V317.909C1103.49 320.568 1102.4 322.068 1099.94 322.068H1099.19V325.818H1100.01C1105.05 325.818 1107.51 322.75 1107.51 317.909V289.818H1103.49ZM1105.46 285.455C1107.03 285.455 1108.33 284.227 1108.33 282.727C1108.33 281.227 1107.03 280 1105.46 280C1103.9 280 1102.6 281.227 1102.6 282.727C1102.6 284.227 1103.9 285.455 1105.46 285.455Z" fill="black"/>
<path d="M1131.5 295.682C1130.24 291.966 1127.41 289.477 1122.23 289.477C1116.71 289.477 1112.62 292.614 1112.62 297.045C1112.62 300.659 1114.76 303.08 1119.57 304.205L1123.93 305.227C1126.58 305.841 1127.82 307.102 1127.82 308.909C1127.82 311.159 1125.43 313 1121.68 313C1118.39 313 1116.33 311.585 1115.62 308.773L1111.8 309.727C1112.74 314.176 1116.4 316.545 1121.75 316.545C1127.84 316.545 1131.98 313.222 1131.98 308.705C1131.98 305.057 1129.7 302.756 1125.03 301.614L1121.14 300.659C1118.04 299.892 1116.64 298.852 1116.64 296.841C1116.64 294.591 1119.03 292.955 1122.23 292.955C1125.74 292.955 1127.19 294.898 1127.89 296.705L1131.5 295.682Z" fill="black"/>
<line x1="497" y1="290" x2="778" y2="290" stroke="#C1C1C1" stroke-width="2" stroke-dasharray="6 10"/>
<path d="M494 289H778V438C778 443.523 773.523 448 768 448H504C498.477 448 494 443.523 494 438V289Z" fill="url(#paint2_linear_113_109)"/>
<g clip-path="url(#clip1_113_109)">
<path d="M708.001 357.115H694.682L707.552 370.057L694.682 383H708.001L720.871 370.057L708.001 357.115Z" fill="white"/>
<path d="M728.13 357.115H714.81L727.681 370.057L714.81 383H728.13L741 370.057L728.13 357.115Z" fill="white"/>
<path d="M539.49 356.513H547.197L542.707 382.248H535L539.49 356.513V356.513ZM539.939 349.665C540.388 347.182 542.707 345 545.251 345C547.795 345 549.517 347.107 549.142 349.665C548.768 352.224 546.374 354.331 543.755 354.331C541.136 354.331 539.564 352.073 539.939 349.665V349.665ZM575.631 366.446L572.863 382.248H565.23L567.774 367.574C568.373 364.263 566.577 362.909 564.108 362.909C561.564 362.909 559.244 364.414 558.496 367.875L555.952 382.248H548.319L552.809 356.513H560.516L560.142 358.921C561.863 356.964 564.781 355.76 567.7 355.76C572.863 355.836 576.829 359.598 575.631 366.446V366.446ZM605.712 369.38C605.637 369.982 605.338 371.412 604.889 372.465H586.556C587.005 375.325 589.4 376.077 591.794 376.077C593.964 376.077 595.685 375.475 597.182 374.046L602.569 378.485C599.576 381.495 596.059 383 591.345 383C582.515 383 577.876 376.604 579.148 368.929C579.736 365.267 581.604 361.937 584.416 359.537C587.228 357.136 590.8 355.824 594.488 355.836C601.821 355.836 607.134 361.554 605.712 369.38V369.38ZM598.454 366.596C598.229 363.737 596.209 362.608 593.814 362.608C592.504 362.584 591.215 362.95 590.111 363.659C589.006 364.369 588.134 365.39 587.604 366.596H598.454ZM627.711 355.986L626.215 364.715C623.222 364.263 618.358 365.317 617.46 370.584L617.535 370.283L615.44 382.248H607.807L612.297 356.513H620.004L619.181 361.178C620.752 357.642 624.12 355.986 627.711 355.986V355.986ZM638.112 373.067C637.738 375.4 639.609 375.55 643.051 375.25L641.854 382.248C632.65 383.301 629.208 380.216 630.48 373.067L632.051 363.962H627.936L629.283 356.513H633.323L634.221 351.622L642.303 349.289L641.031 356.513H646.343L644.996 363.962H639.758L638.112 373.067ZM651.207 356.513H658.914L654.425 382.248H646.717L651.207 356.513V356.513ZM651.656 349.665C652.03 347.182 654.425 345 656.969 345C659.513 345 661.234 347.107 660.86 349.665C660.486 352.224 658.091 354.331 655.472 354.331C652.853 354.331 651.207 352.073 651.656 349.665V349.665ZM690.716 356.513L686.226 382.248H678.519L678.818 380.517C676.629 382.248 673.893 383.13 671.111 383C662.805 383 659.663 375.776 661.009 368.778C662.207 362.156 667.445 355.836 675.376 355.836C678.744 355.836 681.138 357.19 682.56 359.297L683.009 356.588H690.716V356.513ZM680.839 369.455C681.512 365.543 679.417 363.135 675.9 363.135C674.161 363.121 672.476 363.749 671.166 364.9C669.856 366.051 669.011 367.645 668.792 369.38C668.118 373.218 670.138 375.626 673.73 375.626C677.172 375.701 680.165 373.293 680.839 369.455Z" fill="white"/>
</g>
<defs>
<linearGradient id="paint0_linear_113_109" x1="640" y1="0" x2="640" y2="600" gradientUnits="userSpaceOnUse">
<stop offset="0.3125" stop-color="white"/>
<stop offset="1" stop-color="#E8E7ED"/>
</linearGradient>
<linearGradient id="paint1_linear_113_109" x1="778" y1="240.571" x2="494" y2="240.571" gradientUnits="userSpaceOnUse">
<stop stop-color="#6E74EE"/>
<stop offset="1" stop-color="#9654EA"/>
</linearGradient>
<linearGradient id="paint2_linear_113_109" x1="494" y1="368.5" x2="778" y2="368.5" gradientUnits="userSpaceOnUse">
<stop stop-color="#9553E9"/>
<stop offset="1" stop-color="#6D74ED"/>
</linearGradient>
<clipPath id="clip0_113_109">
<rect width="66" height="57" fill="white" transform="translate(924 271)"/>
</clipPath>
<clipPath id="clip1_113_109">
<rect width="206" height="38" fill="white" transform="translate(535 345)"/>
</clipPath>
</defs>
</svg>
